<svg width="1600" height="900" viewBox="0 0 1600 900" fill="none" xmlns="http://www.w3.org/2000/svg">
<rect width="1600" height="900" fill="white"/>
<circle cx="800.5" cy="450.5" r="362.5" fill="black"/>
<circle cx="800" cy="450" r="40" fill="white"/>
<path d="M794.327 445.95H799.619V447H793.207V437.76H794.327V445.95ZM808.939 447H807.749L806.769 444.438H802.583L801.603 447H800.427L804.025 437.76H805.355L808.939 447ZM802.989 443.388H806.363L804.669 438.838L802.989 443.388ZM771.259 463V453.76H778.455V455.622H773.667V457.498H777.475V459.248H773.667V461.138H778.637V463H771.259ZM783.703 453.62C784.562 453.62 785.318 453.755 785.971 454.026C786.634 454.287 787.208 454.675 787.693 455.188L786.531 456.742C786.13 456.322 785.696 456.009 785.229 455.804C784.772 455.589 784.249 455.482 783.661 455.482C783.316 455.482 783.036 455.519 782.821 455.594C782.607 455.669 782.453 455.771 782.359 455.902C782.266 456.033 782.219 456.182 782.219 456.35C782.219 456.546 782.308 456.714 782.485 456.854C782.672 456.985 782.971 457.097 783.381 457.19L784.935 457.54C785.859 457.755 786.536 458.067 786.965 458.478C787.395 458.889 787.609 459.435 787.609 460.116C787.609 460.769 787.441 461.325 787.105 461.782C786.769 462.23 786.307 462.571 785.719 462.804C785.131 463.028 784.459 463.14 783.703 463.14C783.087 463.14 782.499 463.075 781.939 462.944C781.379 462.804 780.875 462.608 780.427 462.356C779.979 462.104 779.601 461.815 779.293 461.488L780.455 459.878C780.689 460.149 780.973 460.391 781.309 460.606C781.655 460.811 782.028 460.975 782.429 461.096C782.84 461.217 783.255 461.278 783.675 461.278C784.002 461.278 784.273 461.245 784.487 461.18C784.711 461.115 784.875 461.017 784.977 460.886C785.08 460.755 785.131 460.601 785.131 460.424C785.131 460.228 785.061 460.065 784.921 459.934C784.781 459.794 784.515 459.677 784.123 459.584L782.415 459.206C781.893 459.085 781.426 458.926 781.015 458.73C780.614 458.525 780.297 458.254 780.063 457.918C779.83 457.573 779.713 457.143 779.713 456.63C779.713 456.051 779.872 455.538 780.189 455.09C780.507 454.633 780.964 454.273 781.561 454.012C782.159 453.751 782.873 453.62 783.703 453.62ZM789.115 463V453.76H796.311V455.622H791.523V457.498H795.331V459.248H791.523V461.138H796.493V463H789.115ZM806.277 453.76V463H803.603L800.733 458.002L800.033 456.63H800.019L800.075 458.338V463H797.947V453.76H800.621L803.491 458.758L804.191 460.13H804.205L804.149 458.422V453.76H806.277ZM816.514 460.354C816.336 460.998 816.052 461.53 815.66 461.95C815.268 462.361 814.801 462.664 814.26 462.86C813.718 463.047 813.121 463.14 812.468 463.14C811.534 463.14 810.727 462.953 810.046 462.58C809.364 462.197 808.842 461.651 808.478 460.942C808.114 460.233 807.932 459.379 807.932 458.38C807.932 457.381 808.114 456.527 808.478 455.818C808.842 455.109 809.364 454.567 810.046 454.194C810.727 453.811 811.53 453.62 812.454 453.62C813.098 453.62 813.69 453.713 814.232 453.9C814.773 454.077 815.23 454.353 815.604 454.726C815.977 455.099 816.243 455.58 816.402 456.168L814.288 457.022C814.157 456.443 813.942 456.047 813.644 455.832C813.354 455.617 812.986 455.51 812.538 455.51C812.099 455.51 811.716 455.617 811.39 455.832C811.072 456.047 810.825 456.369 810.648 456.798C810.48 457.218 810.396 457.745 810.396 458.38C810.396 459.005 810.475 459.533 810.634 459.962C810.792 460.391 811.03 460.713 811.348 460.928C811.674 461.143 812.076 461.25 812.552 461.25C813 461.25 813.378 461.129 813.686 460.886C814.003 460.634 814.218 460.251 814.33 459.738L816.514 460.354ZM820.261 453.76V463H817.853V453.76H820.261ZM830.71 463H828.232L827.588 460.914H824.424L823.766 463H821.344L824.592 453.76H827.476L830.71 463ZM824.872 459.276H827.14L826.006 455.538L824.872 459.276Z" fill="black"/>
</svg>
