<svg width="1600" height="900" viewBox="0 0 1600 900" fill="none" xmlns="http://www.w3.org/2000/svg">
<rect width="1600" height="900" fill="white"/>
<circle cx="800" cy="450" r="380" fill="black"/>
<circle cx="800" cy="450" r="55" fill="white"/>
<path d="M792.946 444.8H798.994V446H791.666V435.44H792.946V444.8ZM809.644 446H808.284L807.164 443.072H802.38L801.26 446H799.916L804.028 435.44H805.548L809.644 446ZM802.844 441.872H806.7L804.764 436.672L802.844 441.872ZM766.582 465V454.44H774.806V456.568H769.334V458.712H773.686V460.712H769.334V462.872H775.014V465H766.582ZM780.804 454.28C781.785 454.28 782.649 454.435 783.396 454.744C784.153 455.043 784.809 455.485 785.364 456.072L784.036 457.848C783.577 457.368 783.081 457.011 782.548 456.776C782.025 456.531 781.428 456.408 780.756 456.408C780.361 456.408 780.041 456.451 779.796 456.536C779.55 456.621 779.374 456.739 779.268 456.888C779.161 457.037 779.108 457.208 779.108 457.4C779.108 457.624 779.209 457.816 779.412 457.976C779.625 458.125 779.966 458.253 780.436 458.36L782.212 458.76C783.268 459.005 784.041 459.363 784.532 459.832C785.022 460.301 785.268 460.925 785.268 461.704C785.268 462.451 785.076 463.085 784.692 463.608C784.308 464.12 783.78 464.509 783.108 464.776C782.436 465.032 781.668 465.16 780.804 465.16C780.1 465.16 779.428 465.085 778.788 464.936C778.148 464.776 777.572 464.552 777.06 464.264C776.548 463.976 776.116 463.645 775.764 463.272L777.092 461.432C777.358 461.741 777.684 462.019 778.068 462.264C778.462 462.499 778.889 462.685 779.348 462.824C779.817 462.963 780.292 463.032 780.772 463.032C781.145 463.032 781.454 462.995 781.7 462.92C781.956 462.845 782.142 462.733 782.26 462.584C782.377 462.435 782.436 462.259 782.436 462.056C782.436 461.832 782.356 461.645 782.196 461.496C782.036 461.336 781.732 461.203 781.284 461.096L779.332 460.664C778.734 460.525 778.201 460.344 777.732 460.12C777.273 459.885 776.91 459.576 776.644 459.192C776.377 458.797 776.244 458.307 776.244 457.72C776.244 457.059 776.425 456.472 776.788 455.96C777.15 455.437 777.673 455.027 778.356 454.728C779.038 454.429 779.854 454.28 780.804 454.28ZM786.988 465V454.44H795.212V456.568H789.74V458.712H794.092V460.712H789.74V462.872H795.42V465H786.988ZM806.602 454.44V465H803.546L800.266 459.288L799.466 457.72H799.45L799.514 459.672V465H797.082V454.44H800.138L803.418 460.152L804.218 461.72H804.234L804.17 459.768V454.44H806.602ZM818.301 461.976C818.099 462.712 817.773 463.32 817.325 463.8C816.877 464.269 816.344 464.616 815.725 464.84C815.107 465.053 814.424 465.16 813.677 465.16C812.611 465.16 811.688 464.947 810.909 464.52C810.131 464.083 809.533 463.459 809.117 462.648C808.701 461.837 808.493 460.861 808.493 459.72C808.493 458.579 808.701 457.603 809.117 456.792C809.533 455.981 810.131 455.363 810.909 454.936C811.688 454.499 812.605 454.28 813.661 454.28C814.397 454.28 815.075 454.387 815.693 454.6C816.312 454.803 816.835 455.117 817.261 455.544C817.688 455.971 817.992 456.52 818.173 457.192L815.757 458.168C815.608 457.507 815.363 457.053 815.021 456.808C814.691 456.563 814.269 456.44 813.757 456.44C813.256 456.44 812.819 456.563 812.445 456.808C812.083 457.053 811.8 457.421 811.597 457.912C811.405 458.392 811.309 458.995 811.309 459.72C811.309 460.435 811.4 461.037 811.581 461.528C811.763 462.019 812.035 462.387 812.397 462.632C812.771 462.877 813.229 463 813.773 463C814.285 463 814.717 462.861 815.069 462.584C815.432 462.296 815.677 461.859 815.805 461.272L818.301 461.976ZM822.584 454.44V465H819.832V454.44H822.584ZM834.526 465H831.694L830.958 462.616H827.342L826.59 465H823.822L827.534 454.44H830.83L834.526 465ZM827.854 460.744H830.446L829.15 456.472L827.854 460.744Z" fill="black"/>
</svg>
