<svg width="1600" height="900" viewBox="0 0 1600 900" fill="none" xmlns="http://www.w3.org/2000/svg">
<rect width="1600" height="900" fill="white"/>
<circle cx="800" cy="450" r="400" fill="black"/>
<circle cx="800" cy="450" r="75" fill="white"/>
<path d="M791.682 443.5H799.242V445H790.082V431.8H791.682V443.5ZM812.555 445H810.855L809.455 441.34H803.475L802.075 445H800.395L805.535 431.8H807.435L812.555 445ZM804.055 439.84H808.875L806.455 433.34L804.055 439.84ZM758.728 468V454.8H769.008V457.46H762.168V460.14H767.608V462.64H762.168V465.34H769.268V468H758.728ZM776.505 454.6C777.731 454.6 778.811 454.793 779.745 455.18C780.691 455.553 781.511 456.107 782.205 456.84L780.545 459.06C779.971 458.46 779.351 458.013 778.685 457.72C778.031 457.413 777.285 457.26 776.445 457.26C775.951 457.26 775.551 457.313 775.245 457.42C774.938 457.527 774.718 457.673 774.585 457.86C774.451 458.047 774.385 458.26 774.385 458.5C774.385 458.78 774.511 459.02 774.765 459.22C775.031 459.407 775.458 459.567 776.045 459.7L778.265 460.2C779.585 460.507 780.551 460.953 781.165 461.54C781.778 462.127 782.085 462.907 782.085 463.88C782.085 464.813 781.845 465.607 781.365 466.26C780.885 466.9 780.225 467.387 779.385 467.72C778.545 468.04 777.585 468.2 776.505 468.2C775.625 468.2 774.785 468.107 773.985 467.92C773.185 467.72 772.465 467.44 771.825 467.08C771.185 466.72 770.645 466.307 770.205 465.84L771.865 463.54C772.198 463.927 772.605 464.273 773.085 464.58C773.578 464.873 774.111 465.107 774.685 465.28C775.271 465.453 775.865 465.54 776.465 465.54C776.931 465.54 777.318 465.493 777.625 465.4C777.945 465.307 778.178 465.167 778.325 464.98C778.471 464.793 778.545 464.573 778.545 464.32C778.545 464.04 778.445 463.807 778.245 463.62C778.045 463.42 777.665 463.253 777.105 463.12L774.665 462.58C773.918 462.407 773.251 462.18 772.665 461.9C772.091 461.607 771.638 461.22 771.305 460.74C770.971 460.247 770.805 459.633 770.805 458.9C770.805 458.073 771.031 457.34 771.485 456.7C771.938 456.047 772.591 455.533 773.445 455.16C774.298 454.787 775.318 454.6 776.505 454.6ZM784.235 468V454.8H794.515V457.46H787.675V460.14H793.115V462.64H787.675V465.34H794.775V468H784.235ZM808.753 454.8V468H804.933L800.833 460.86L799.833 458.9H799.813L799.893 461.34V468H796.853V454.8H800.673L804.773 461.94L805.773 463.9H805.793L805.713 461.46V454.8H808.753ZM823.377 464.22C823.123 465.14 822.717 465.9 822.157 466.5C821.597 467.087 820.93 467.52 820.157 467.8C819.383 468.067 818.53 468.2 817.597 468.2C816.263 468.2 815.11 467.933 814.137 467.4C813.163 466.853 812.417 466.073 811.897 465.06C811.377 464.047 811.117 462.827 811.117 461.4C811.117 459.973 811.377 458.753 811.897 457.74C812.417 456.727 813.163 455.953 814.137 455.42C815.11 454.873 816.257 454.6 817.577 454.6C818.497 454.6 819.343 454.733 820.117 455C820.89 455.253 821.543 455.647 822.077 456.18C822.61 456.713 822.99 457.4 823.217 458.24L820.197 459.46C820.01 458.633 819.703 458.067 819.277 457.76C818.863 457.453 818.337 457.3 817.697 457.3C817.07 457.3 816.523 457.453 816.057 457.76C815.603 458.067 815.25 458.527 814.997 459.14C814.757 459.74 814.637 460.493 814.637 461.4C814.637 462.293 814.75 463.047 814.977 463.66C815.203 464.273 815.543 464.733 815.997 465.04C816.463 465.347 817.037 465.5 817.717 465.5C818.357 465.5 818.897 465.327 819.337 464.98C819.79 464.62 820.097 464.073 820.257 463.34L823.377 464.22ZM828.73 454.8V468H825.29V454.8H828.73ZM843.657 468H840.117L839.197 465.02H834.677L833.737 468H830.277L834.917 454.8H839.037L843.657 468ZM835.317 462.68H838.557L836.937 457.34L835.317 462.68Z" fill="black"/>
</svg>
