<svg width="1600" height="900" viewBox="0 0 1600 900" fill="none" xmlns="http://www.w3.org/2000/svg">
<rect width="1600" height="900" fill="white"/>
<circle cx="800" cy="450" r="410" fill="black"/>
<circle cx="800" cy="450" r="90" fill="white"/>
<path d="M790.3 443.35H798.616V445H788.54V430.48H790.3V443.35ZM813.261 445H811.391L809.851 440.974H803.273L801.733 445H799.885L805.539 430.48H807.629L813.261 445ZM803.911 439.324H809.213L806.551 432.174L803.911 439.324ZM754.05 471V456.48H765.358V459.406H757.834V462.354H763.818V465.104H757.834V468.074H765.644V471H754.05ZM773.605 456.26C774.955 456.26 776.143 456.473 777.169 456.898C778.211 457.309 779.113 457.917 779.875 458.724L778.049 461.166C777.419 460.506 776.737 460.015 776.003 459.692C775.285 459.355 774.463 459.186 773.539 459.186C772.997 459.186 772.557 459.245 772.219 459.362C771.882 459.479 771.64 459.641 771.493 459.846C771.347 460.051 771.273 460.286 771.273 460.55C771.273 460.858 771.413 461.122 771.691 461.342C771.985 461.547 772.454 461.723 773.099 461.87L775.541 462.42C776.993 462.757 778.057 463.249 778.731 463.894C779.406 464.539 779.743 465.397 779.743 466.468C779.743 467.495 779.479 468.367 778.951 469.086C778.423 469.79 777.697 470.325 776.773 470.692C775.849 471.044 774.793 471.22 773.605 471.22C772.637 471.22 771.713 471.117 770.833 470.912C769.953 470.692 769.161 470.384 768.457 469.988C767.753 469.592 767.159 469.137 766.675 468.624L768.501 466.094C768.868 466.519 769.315 466.901 769.843 467.238C770.386 467.561 770.973 467.817 771.603 468.008C772.249 468.199 772.901 468.294 773.561 468.294C774.075 468.294 774.5 468.243 774.837 468.14C775.189 468.037 775.446 467.883 775.607 467.678C775.769 467.473 775.849 467.231 775.849 466.952C775.849 466.644 775.739 466.387 775.519 466.182C775.299 465.962 774.881 465.779 774.265 465.632L771.581 465.038C770.76 464.847 770.027 464.598 769.381 464.29C768.751 463.967 768.252 463.542 767.885 463.014C767.519 462.471 767.335 461.797 767.335 460.99C767.335 460.081 767.585 459.274 768.083 458.57C768.582 457.851 769.301 457.287 770.239 456.876C771.178 456.465 772.3 456.26 773.605 456.26ZM782.109 471V456.48H793.417V459.406H785.893V462.354H791.877V465.104H785.893V468.074H793.703V471H782.109ZM809.078 456.48V471H804.876L800.366 463.146L799.266 460.99H799.244L799.332 463.674V471H795.988V456.48H800.19L804.7 464.334L805.8 466.49H805.822L805.734 463.806V456.48H809.078ZM825.164 466.842C824.886 467.854 824.438 468.69 823.822 469.35C823.206 469.995 822.473 470.472 821.622 470.78C820.772 471.073 819.833 471.22 818.806 471.22C817.34 471.22 816.071 470.927 815 470.34C813.93 469.739 813.108 468.881 812.536 467.766C811.964 466.651 811.678 465.309 811.678 463.74C811.678 462.171 811.964 460.829 812.536 459.714C813.108 458.599 813.93 457.749 815 457.162C816.071 456.561 817.332 456.26 818.784 456.26C819.796 456.26 820.728 456.407 821.578 456.7C822.429 456.979 823.148 457.411 823.734 457.998C824.321 458.585 824.739 459.34 824.988 460.264L821.666 461.606C821.461 460.697 821.124 460.073 820.654 459.736C820.2 459.399 819.62 459.23 818.916 459.23C818.227 459.23 817.626 459.399 817.112 459.736C816.614 460.073 816.225 460.579 815.946 461.254C815.682 461.914 815.55 462.743 815.55 463.74C815.55 464.723 815.675 465.551 815.924 466.226C816.174 466.901 816.548 467.407 817.046 467.744C817.56 468.081 818.19 468.25 818.938 468.25C819.642 468.25 820.236 468.059 820.72 467.678C821.219 467.282 821.556 466.681 821.732 465.874L825.164 466.842ZM831.053 456.48V471H827.269V456.48H831.053ZM847.473 471H843.579L842.567 467.722H837.595L836.561 471H832.755L837.859 456.48H842.391L847.473 471ZM838.299 465.148H841.863L840.081 459.274L838.299 465.148Z" fill="black"/>
</svg>
