<svg width="1600" height="900" viewBox="0 0 1600 900" fill="none" xmlns="http://www.w3.org/2000/svg">
<rect width="1600" height="900" fill="white"/>
<circle cx="800" cy="450" r="425" fill="black"/>
<circle cx="800" cy="450" r="115" fill="white"/>
<path d="M789.418 442.2H798.49V444H787.498V428.16H789.418V442.2ZM814.466 444H812.426L810.746 439.608H803.57L801.89 444H799.874L806.042 428.16H808.322L814.466 444ZM804.266 437.808H810.05L807.146 430.008L804.266 437.808ZM749.873 472V456.16H762.209V459.352H754.001V462.568H760.529V465.568H754.001V468.808H762.521V472H749.873ZM771.206 455.92C772.678 455.92 773.974 456.152 775.094 456.616C776.23 457.064 777.214 457.728 778.046 458.608L776.054 461.272C775.366 460.552 774.622 460.016 773.822 459.664C773.038 459.296 772.142 459.112 771.134 459.112C770.542 459.112 770.062 459.176 769.694 459.304C769.326 459.432 769.062 459.608 768.902 459.832C768.742 460.056 768.662 460.312 768.662 460.6C768.662 460.936 768.814 461.224 769.118 461.464C769.438 461.688 769.95 461.88 770.654 462.04L773.318 462.64C774.902 463.008 776.062 463.544 776.798 464.248C777.534 464.952 777.902 465.888 777.902 467.056C777.902 468.176 777.614 469.128 777.038 469.912C776.462 470.68 775.67 471.264 774.662 471.664C773.654 472.048 772.502 472.24 771.206 472.24C770.15 472.24 769.142 472.128 768.182 471.904C767.222 471.664 766.358 471.328 765.59 470.896C764.822 470.464 764.174 469.968 763.646 469.408L765.638 466.648C766.038 467.112 766.526 467.528 767.102 467.896C767.694 468.248 768.334 468.528 769.022 468.736C769.726 468.944 770.438 469.048 771.158 469.048C771.718 469.048 772.182 468.992 772.55 468.88C772.934 468.768 773.214 468.6 773.39 468.376C773.566 468.152 773.654 467.888 773.654 467.584C773.654 467.248 773.534 466.968 773.294 466.744C773.054 466.504 772.598 466.304 771.926 466.144L768.998 465.496C768.102 465.288 767.302 465.016 766.598 464.68C765.91 464.328 765.366 463.864 764.966 463.288C764.566 462.696 764.366 461.96 764.366 461.08C764.366 460.088 764.638 459.208 765.182 458.44C765.726 457.656 766.51 457.04 767.534 456.592C768.558 456.144 769.782 455.92 771.206 455.92ZM780.482 472V456.16H792.818V459.352H784.61V462.568H791.138V465.568H784.61V468.808H793.13V472H780.482ZM809.903 456.16V472H805.319L800.399 463.432L799.199 461.08H799.175L799.271 464.008V472H795.623V456.16H800.207L805.127 464.728L806.327 467.08H806.351L806.255 464.152V456.16H809.903ZM827.452 467.464C827.148 468.568 826.66 469.48 825.988 470.2C825.316 470.904 824.516 471.424 823.588 471.76C822.66 472.08 821.636 472.24 820.516 472.24C818.916 472.24 817.532 471.92 816.364 471.28C815.196 470.624 814.3 469.688 813.676 468.472C813.052 467.256 812.74 465.792 812.74 464.08C812.74 462.368 813.052 460.904 813.676 459.688C814.3 458.472 815.196 457.544 816.364 456.904C817.532 456.248 818.908 455.92 820.492 455.92C821.596 455.92 822.612 456.08 823.54 456.4C824.468 456.704 825.252 457.176 825.892 457.816C826.532 458.456 826.988 459.28 827.26 460.288L823.636 461.752C823.412 460.76 823.044 460.08 822.532 459.712C822.036 459.344 821.404 459.16 820.636 459.16C819.884 459.16 819.228 459.344 818.668 459.712C818.124 460.08 817.7 460.632 817.396 461.368C817.108 462.088 816.964 462.992 816.964 464.08C816.964 465.152 817.1 466.056 817.372 466.792C817.644 467.528 818.052 468.08 818.596 468.448C819.156 468.816 819.844 469 820.66 469C821.428 469 822.076 468.792 822.604 468.376C823.148 467.944 823.516 467.288 823.708 466.408L827.452 467.464ZM833.876 456.16V472H829.748V456.16H833.876ZM851.789 472H847.541L846.437 468.424H841.013L839.885 472H835.733L841.301 456.16H846.245L851.789 472ZM841.781 465.616H845.669L843.725 459.208L841.781 465.616Z" fill="black"/>
</svg>
