<svg width="1600" height="900" viewBox="0 0 1600 900" fill="none" xmlns="http://www.w3.org/2000/svg">
<rect width="1600" height="900" fill="white"/>
<circle cx="800" cy="450" r="435" fill="black"/>
<circle cx="800" cy="450" r="140" fill="white"/>
<path d="M789.036 442.05H798.864V444H786.956V426.84H789.036V442.05ZM816.172 444H813.962L812.142 439.242H804.368L802.548 444H800.364L807.046 426.84H809.516L816.172 444ZM805.122 437.292H811.388L808.242 428.842L805.122 437.292ZM746.196 474V456.84H759.56V460.298H750.668V463.782H757.74V467.032H750.668V470.542H759.898V474H746.196ZM769.306 456.58C770.901 456.58 772.305 456.831 773.518 457.334C774.749 457.819 775.815 458.539 776.716 459.492L774.558 462.378C773.813 461.598 773.007 461.017 772.14 460.636C771.291 460.237 770.32 460.038 769.228 460.038C768.587 460.038 768.067 460.107 767.668 460.246C767.27 460.385 766.984 460.575 766.81 460.818C766.637 461.061 766.55 461.338 766.55 461.65C766.55 462.014 766.715 462.326 767.044 462.586C767.391 462.829 767.946 463.037 768.708 463.21L771.594 463.86C773.31 464.259 774.567 464.839 775.364 465.602C776.162 466.365 776.56 467.379 776.56 468.644C776.56 469.857 776.248 470.889 775.624 471.738C775 472.57 774.142 473.203 773.05 473.636C771.958 474.052 770.71 474.26 769.306 474.26C768.162 474.26 767.07 474.139 766.03 473.896C764.99 473.636 764.054 473.272 763.222 472.804C762.39 472.336 761.688 471.799 761.116 471.192L763.274 468.202C763.708 468.705 764.236 469.155 764.86 469.554C765.502 469.935 766.195 470.239 766.94 470.464C767.703 470.689 768.474 470.802 769.254 470.802C769.861 470.802 770.364 470.741 770.762 470.62C771.178 470.499 771.482 470.317 771.672 470.074C771.863 469.831 771.958 469.545 771.958 469.216C771.958 468.852 771.828 468.549 771.568 468.306C771.308 468.046 770.814 467.829 770.086 467.656L766.914 466.954C765.944 466.729 765.077 466.434 764.314 466.07C763.569 465.689 762.98 465.186 762.546 464.562C762.113 463.921 761.896 463.123 761.896 462.17C761.896 461.095 762.191 460.142 762.78 459.31C763.37 458.461 764.219 457.793 765.328 457.308C766.438 456.823 767.764 456.58 769.306 456.58ZM779.356 474V456.84H792.72V460.298H783.828V463.782H790.9V467.032H783.828V470.542H793.058V474H779.356ZM811.228 456.84V474H806.262L800.932 464.718L799.632 462.17H799.606L799.71 465.342V474H795.758V456.84H800.724L806.054 466.122L807.354 468.67H807.38L807.276 465.498V456.84H811.228ZM830.24 469.086C829.911 470.282 829.382 471.27 828.654 472.05C827.926 472.813 827.059 473.376 826.054 473.74C825.049 474.087 823.939 474.26 822.726 474.26C820.993 474.26 819.493 473.913 818.228 473.22C816.963 472.509 815.992 471.495 815.316 470.178C814.64 468.861 814.302 467.275 814.302 465.42C814.302 463.565 814.64 461.979 815.316 460.662C815.992 459.345 816.963 458.339 818.228 457.646C819.493 456.935 820.984 456.58 822.7 456.58C823.896 456.58 824.997 456.753 826.002 457.1C827.007 457.429 827.857 457.941 828.55 458.634C829.243 459.327 829.737 460.22 830.032 461.312L826.106 462.898C825.863 461.823 825.465 461.087 824.91 460.688C824.373 460.289 823.688 460.09 822.856 460.09C822.041 460.09 821.331 460.289 820.724 460.688C820.135 461.087 819.675 461.685 819.346 462.482C819.034 463.262 818.878 464.241 818.878 465.42C818.878 466.581 819.025 467.561 819.32 468.358C819.615 469.155 820.057 469.753 820.646 470.152C821.253 470.551 821.998 470.75 822.882 470.75C823.714 470.75 824.416 470.525 824.988 470.074C825.577 469.606 825.976 468.895 826.184 467.942L830.24 469.086ZM837.199 456.84V474H832.727V456.84H837.199ZM856.604 474H852.002L850.806 470.126H844.93L843.708 474H839.21L845.242 456.84H850.598L856.604 474ZM845.762 467.084H849.974L847.868 460.142L845.762 467.084Z" fill="black"/>
</svg>
