<svg width="1600" height="900" viewBox="0 0 1600 900" fill="none" xmlns="http://www.w3.org/2000/svg">
<g clip-path="url(#clip0_24_69)">
<rect width="1600" height="900" fill="white"/>
<circle cx="800" cy="450" r="465" fill="black"/>
<circle cx="800.5" cy="450.5" r="167.5" fill="white"/>
<path d="M784.127 438.3H797.735V441H781.247V417.24H784.127V438.3ZM821.699 441H818.639L816.119 434.412H805.355L802.835 441H799.811L809.063 417.24H812.483L821.699 441ZM806.399 431.712H815.075L810.719 420.012L806.399 431.712ZM724.81 483V459.24H743.314V464.028H731.002V468.852H740.794V473.352H731.002V478.212H743.782V483H724.81ZM756.809 458.88C759.017 458.88 760.961 459.228 762.641 459.924C764.345 460.596 765.821 461.592 767.069 462.912L764.081 466.908C763.049 465.828 761.933 465.024 760.733 464.496C759.557 463.944 758.213 463.668 756.701 463.668C755.813 463.668 755.093 463.764 754.541 463.956C753.989 464.148 753.593 464.412 753.353 464.748C753.113 465.084 752.993 465.468 752.993 465.9C752.993 466.404 753.221 466.836 753.677 467.196C754.157 467.532 754.925 467.82 755.981 468.06L759.977 468.96C762.353 469.512 764.093 470.316 765.197 471.372C766.301 472.428 766.853 473.832 766.853 475.584C766.853 477.264 766.421 478.692 765.557 479.868C764.693 481.02 763.505 481.896 761.993 482.496C760.481 483.072 758.753 483.36 756.809 483.36C755.225 483.36 753.713 483.192 752.273 482.856C750.833 482.496 749.537 481.992 748.385 481.344C747.233 480.696 746.261 479.952 745.469 479.112L748.457 474.972C749.057 475.668 749.789 476.292 750.653 476.844C751.541 477.372 752.501 477.792 753.533 478.104C754.589 478.416 755.657 478.572 756.737 478.572C757.577 478.572 758.273 478.488 758.825 478.32C759.401 478.152 759.821 477.9 760.085 477.564C760.349 477.228 760.481 476.832 760.481 476.376C760.481 475.872 760.301 475.452 759.941 475.116C759.581 474.756 758.897 474.456 757.889 474.216L753.497 473.244C752.153 472.932 750.953 472.524 749.897 472.02C748.865 471.492 748.049 470.796 747.449 469.932C746.849 469.044 746.549 467.94 746.549 466.62C746.549 465.132 746.957 463.812 747.773 462.66C748.589 461.484 749.765 460.56 751.301 459.888C752.837 459.216 754.673 458.88 756.809 458.88ZM770.724 483V459.24H789.228V464.028H776.916V468.852H786.708V473.352H776.916V478.212H789.696V483H770.724ZM814.855 459.24V483H807.979L800.599 470.148L798.799 466.62H798.763L798.907 471.012V483H793.435V459.24H800.311L807.691 472.092L809.491 475.62H809.527L809.383 471.228V459.24H814.855ZM841.178 476.196C840.722 477.852 839.99 479.22 838.982 480.3C837.974 481.356 836.774 482.136 835.382 482.64C833.99 483.12 832.454 483.36 830.774 483.36C828.374 483.36 826.298 482.88 824.546 481.92C822.794 480.936 821.45 479.532 820.514 477.708C819.578 475.884 819.11 473.688 819.11 471.12C819.11 468.552 819.578 466.356 820.514 464.532C821.45 462.708 822.794 461.316 824.546 460.356C826.298 459.372 828.362 458.88 830.738 458.88C832.394 458.88 833.918 459.12 835.31 459.6C836.702 460.056 837.878 460.764 838.838 461.724C839.798 462.684 840.482 463.92 840.89 465.432L835.454 467.628C835.118 466.14 834.566 465.12 833.798 464.568C833.054 464.016 832.106 463.74 830.954 463.74C829.826 463.74 828.842 464.016 828.002 464.568C827.186 465.12 826.55 465.948 826.094 467.052C825.662 468.132 825.446 469.488 825.446 471.12C825.446 472.728 825.65 474.084 826.058 475.188C826.466 476.292 827.078 477.12 827.894 477.672C828.734 478.224 829.766 478.5 830.99 478.5C832.142 478.5 833.114 478.188 833.906 477.564C834.722 476.916 835.274 475.932 835.562 474.612L841.178 476.196ZM850.814 459.24V483H844.622V459.24H850.814ZM877.683 483H871.311L869.655 477.636H861.519L859.827 483H853.599L861.951 459.24H869.367L877.683 483ZM862.671 473.424H868.503L865.587 463.812L862.671 473.424Z" fill="black"/>
</g>
<defs>
<clipPath id="clip0_24_69">
<rect width="1600" height="900" fill="white"/>
</clipPath>
</defs>
</svg>
