<svg width="1600" height="900" viewBox="0 0 1600 900" fill="none" xmlns="http://www.w3.org/2000/svg">
<g clip-path="url(#clip0_46_769)">
<rect width="1600" height="900" fill="white"/>
<circle cx="800" cy="450" r="475" fill="black"/>
<circle cx="800" cy="450" r="170" fill="white"/>
<path d="M782.864 437H797.984V440H779.664V413.6H782.864V437ZM824.61 440H821.21L818.41 432.68H806.45L803.65 440H800.29L810.57 413.6H814.37L824.61 440ZM807.61 429.68H817.25L812.41 416.68L807.61 429.68ZM716.955 487V460.6H737.515V465.92H723.835V471.28H734.715V476.28H723.835V481.68H738.035V487H716.955ZM752.51 460.2C754.963 460.2 757.123 460.587 758.99 461.36C760.883 462.107 762.523 463.213 763.91 464.68L760.59 469.12C759.443 467.92 758.203 467.027 756.87 466.44C755.563 465.827 754.07 465.52 752.39 465.52C751.403 465.52 750.603 465.627 749.99 465.84C749.376 466.053 748.936 466.347 748.67 466.72C748.403 467.093 748.27 467.52 748.27 468C748.27 468.56 748.523 469.04 749.03 469.44C749.563 469.813 750.416 470.133 751.59 470.4L756.03 471.4C758.67 472.013 760.603 472.907 761.83 474.08C763.056 475.253 763.67 476.813 763.67 478.76C763.67 480.627 763.19 482.213 762.23 483.52C761.27 484.8 759.95 485.773 758.27 486.44C756.59 487.08 754.67 487.4 752.51 487.4C750.75 487.4 749.07 487.213 747.47 486.84C745.87 486.44 744.43 485.88 743.15 485.16C741.87 484.44 740.79 483.613 739.91 482.68L743.23 478.08C743.896 478.853 744.71 479.547 745.67 480.16C746.656 480.747 747.723 481.213 748.87 481.56C750.043 481.907 751.23 482.08 752.43 482.08C753.363 482.08 754.136 481.987 754.75 481.8C755.39 481.613 755.856 481.333 756.15 480.96C756.443 480.587 756.59 480.147 756.59 479.64C756.59 479.08 756.39 478.613 755.99 478.24C755.59 477.84 754.83 477.507 753.71 477.24L748.83 476.16C747.336 475.813 746.003 475.36 744.83 474.8C743.683 474.213 742.776 473.44 742.11 472.48C741.443 471.493 741.11 470.267 741.11 468.8C741.11 467.147 741.563 465.68 742.47 464.4C743.376 463.093 744.683 462.067 746.39 461.32C748.096 460.573 750.136 460.2 752.51 460.2ZM767.971 487V460.6H788.531V465.92H774.851V471.28H785.731V476.28H774.851V481.68H789.051V487H767.971ZM817.005 460.6V487H809.365L801.165 472.72L799.165 468.8H799.125L799.285 473.68V487H793.205V460.6H800.845L809.045 474.88L811.045 478.8H811.085L810.925 473.92V460.6H817.005ZM846.254 479.44C845.747 481.28 844.934 482.8 843.814 484C842.694 485.173 841.36 486.04 839.814 486.6C838.267 487.133 836.56 487.4 834.694 487.4C832.027 487.4 829.72 486.867 827.774 485.8C825.827 484.707 824.334 483.147 823.294 481.12C822.254 479.093 821.734 476.653 821.734 473.8C821.734 470.947 822.254 468.507 823.294 466.48C824.334 464.453 825.827 462.907 827.774 461.84C829.72 460.747 832.014 460.2 834.654 460.2C836.494 460.2 838.187 460.467 839.734 461C841.28 461.507 842.587 462.293 843.654 463.36C844.72 464.427 845.48 465.8 845.934 467.48L839.894 469.92C839.52 468.267 838.907 467.133 838.054 466.52C837.227 465.907 836.174 465.6 834.894 465.6C833.64 465.6 832.547 465.907 831.614 466.52C830.707 467.133 830 468.053 829.494 469.28C829.014 470.48 828.774 471.987 828.774 473.8C828.774 475.587 829 477.093 829.454 478.32C829.907 479.547 830.587 480.467 831.494 481.08C832.427 481.693 833.574 482 834.934 482C836.214 482 837.294 481.653 838.174 480.96C839.08 480.24 839.694 479.147 840.014 477.68L846.254 479.44ZM856.96 460.6V487H850.08V460.6H856.96ZM886.815 487H879.735L877.895 481.04H868.855L866.975 487H860.055L869.335 460.6H877.575L886.815 487ZM870.135 476.36H876.615L873.375 465.68L870.135 476.36Z" fill="black"/>
</g>
<defs>
<clipPath id="clip0_46_769">
<rect width="1600" height="900" fill="white"/>
</clipPath>
</defs>
</svg>
