<svg width="1600" height="900" viewBox="0 0 1600 900" fill="none" xmlns="http://www.w3.org/2000/svg">
<g clip-path="url(#clip0_46_773)">
<rect width="1600" height="900" fill="white"/>
<circle cx="800" cy="450" r="485" fill="black"/>
<circle cx="800" cy="450" r="185" fill="white"/>
<path d="M781.1 412.7H797.732V416H777.58V386.96H781.1V412.7ZM827.021 416H823.281L820.201 407.948H807.045L803.965 416H800.269L811.577 386.96H815.757L827.021 416ZM808.321 404.648H818.925L813.601 390.348L808.321 404.648ZM708.601 468V438.96H731.217V444.812H716.169V450.708H728.137V456.208H716.169V462.148H731.789V468H708.601ZM747.71 438.52C750.409 438.52 752.785 438.945 754.838 439.796C756.921 440.617 758.725 441.835 760.25 443.448L756.598 448.332C755.337 447.012 753.973 446.029 752.506 445.384C751.069 444.709 749.426 444.372 747.578 444.372C746.493 444.372 745.613 444.489 744.938 444.724C744.264 444.959 743.78 445.281 743.486 445.692C743.193 446.103 743.046 446.572 743.046 447.1C743.046 447.716 743.325 448.244 743.882 448.684C744.469 449.095 745.408 449.447 746.698 449.74L751.582 450.84C754.486 451.515 756.613 452.497 757.962 453.788C759.312 455.079 759.986 456.795 759.986 458.936C759.986 460.989 759.458 462.735 758.402 464.172C757.346 465.58 755.894 466.651 754.046 467.384C752.198 468.088 750.086 468.44 747.71 468.44C745.774 468.44 743.926 468.235 742.166 467.824C740.406 467.384 738.822 466.768 737.414 465.976C736.006 465.184 734.818 464.275 733.85 463.248L737.502 458.188C738.236 459.039 739.13 459.801 740.186 460.476C741.272 461.121 742.445 461.635 743.706 462.016C744.997 462.397 746.302 462.588 747.622 462.588C748.649 462.588 749.5 462.485 750.174 462.28C750.878 462.075 751.392 461.767 751.714 461.356C752.037 460.945 752.198 460.461 752.198 459.904C752.198 459.288 751.978 458.775 751.538 458.364C751.098 457.924 750.262 457.557 749.03 457.264L743.662 456.076C742.02 455.695 740.553 455.196 739.262 454.58C738.001 453.935 737.004 453.084 736.27 452.028C735.537 450.943 735.17 449.593 735.17 447.98C735.17 446.161 735.669 444.548 736.666 443.14C737.664 441.703 739.101 440.573 740.978 439.752C742.856 438.931 745.1 438.52 747.71 438.52ZM764.718 468V438.96H787.334V444.812H772.286V450.708H784.254V456.208H772.286V462.148H787.906V468H764.718ZM818.656 438.96V468H810.252L801.232 452.292L799.032 447.98H798.988L799.164 453.348V468H792.476V438.96H800.88L809.9 454.668L812.1 458.98H812.144L811.968 453.612V438.96H818.656ZM850.829 459.684C850.272 461.708 849.377 463.38 848.145 464.7C846.913 465.991 845.446 466.944 843.745 467.56C842.044 468.147 840.166 468.44 838.113 468.44C835.18 468.44 832.642 467.853 830.501 466.68C828.36 465.477 826.717 463.761 825.573 461.532C824.429 459.303 823.857 456.619 823.857 453.48C823.857 450.341 824.429 447.657 825.573 445.428C826.717 443.199 828.36 441.497 830.501 440.324C832.642 439.121 835.165 438.52 838.069 438.52C840.093 438.52 841.956 438.813 843.657 439.4C845.358 439.957 846.796 440.823 847.969 441.996C849.142 443.169 849.978 444.68 850.477 446.528L843.833 449.212C843.422 447.393 842.748 446.147 841.809 445.472C840.9 444.797 839.741 444.46 838.333 444.46C836.954 444.46 835.752 444.797 834.725 445.472C833.728 446.147 832.95 447.159 832.393 448.508C831.865 449.828 831.601 451.485 831.601 453.48C831.601 455.445 831.85 457.103 832.349 458.452C832.848 459.801 833.596 460.813 834.593 461.488C835.62 462.163 836.881 462.5 838.377 462.5C839.785 462.5 840.973 462.119 841.941 461.356C842.938 460.564 843.613 459.361 843.965 457.748L850.829 459.684ZM862.606 438.96V468H855.038V438.96H862.606ZM895.446 468H887.658L885.634 461.444H875.69L873.622 468H866.01L876.218 438.96H885.282L895.446 468ZM877.098 456.296H884.226L880.662 444.548L877.098 456.296Z" fill="black"/>
</g>
<defs>
<clipPath id="clip0_46_773">
<rect width="1600" height="900" fill="white"/>
</clipPath>
</defs>
</svg>
