<svg width="1600" height="900" viewBox="0 0 1600 900" fill="none" xmlns="http://www.w3.org/2000/svg">
<g clip-path="url(#clip0_46_777)">
<rect width="1600" height="900" fill="white"/>
<circle cx="800" cy="450" r="490" fill="black"/>
<circle cx="800" cy="450" r="200" fill="white"/>
<path d="M778.837 434.4H796.981V438H774.997V406.32H778.837V434.4ZM828.932 438H824.852L821.492 429.216H807.14L803.78 438H799.748L812.084 406.32H816.644L828.932 438ZM808.532 425.616H820.1L814.292 410.016L808.532 425.616ZM699.746 494V462.32H724.418V468.704H708.002V475.136H721.058V481.136H708.002V487.616H725.042V494H699.746ZM742.411 461.84C745.355 461.84 747.947 462.304 750.187 463.232C752.459 464.128 754.427 465.456 756.091 467.216L752.107 472.544C750.731 471.104 749.243 470.032 747.643 469.328C746.075 468.592 744.283 468.224 742.267 468.224C741.083 468.224 740.123 468.352 739.387 468.608C738.651 468.864 738.123 469.216 737.803 469.664C737.483 470.112 737.323 470.624 737.323 471.2C737.323 471.872 737.627 472.448 738.235 472.928C738.875 473.376 739.899 473.76 741.307 474.08L746.635 475.28C749.803 476.016 752.123 477.088 753.595 478.496C755.067 479.904 755.803 481.776 755.803 484.112C755.803 486.352 755.227 488.256 754.075 489.824C752.923 491.36 751.339 492.528 749.323 493.328C747.307 494.096 745.003 494.48 742.411 494.48C740.299 494.48 738.283 494.256 736.363 493.808C734.443 493.328 732.715 492.656 731.179 491.792C729.643 490.928 728.347 489.936 727.291 488.816L731.275 483.296C732.075 484.224 733.051 485.056 734.203 485.792C735.387 486.496 736.667 487.056 738.043 487.472C739.451 487.888 740.875 488.096 742.315 488.096C743.435 488.096 744.363 487.984 745.099 487.76C745.867 487.536 746.427 487.2 746.779 486.752C747.131 486.304 747.307 485.776 747.307 485.168C747.307 484.496 747.067 483.936 746.587 483.488C746.107 483.008 745.195 482.608 743.851 482.288L737.995 480.992C736.203 480.576 734.603 480.032 733.195 479.36C731.819 478.656 730.731 477.728 729.931 476.576C729.131 475.392 728.731 473.92 728.731 472.16C728.731 470.176 729.275 468.416 730.363 466.88C731.451 465.312 733.019 464.08 735.067 463.184C737.115 462.288 739.563 461.84 742.411 461.84ZM760.965 494V462.32H785.637V468.704H769.221V475.136H782.277V481.136H769.221V487.616H786.261V494H760.965ZM819.806 462.32V494H810.638L800.798 476.864L798.398 472.16H798.35L798.542 478.016V494H791.246V462.32H800.414L810.254 479.456L812.654 484.16H812.702L812.51 478.304V462.32H819.806ZM854.904 484.928C854.296 487.136 853.32 488.96 851.976 490.4C850.632 491.808 849.032 492.848 847.176 493.52C845.32 494.16 843.272 494.48 841.032 494.48C837.832 494.48 835.064 493.84 832.728 492.56C830.392 491.248 828.6 489.376 827.352 486.944C826.104 484.512 825.48 481.584 825.48 478.16C825.48 474.736 826.104 471.808 827.352 469.376C828.6 466.944 830.392 465.088 832.728 463.808C835.064 462.496 837.816 461.84 840.984 461.84C843.192 461.84 845.224 462.16 847.08 462.8C848.936 463.408 850.504 464.352 851.784 465.632C853.064 466.912 853.976 468.56 854.52 470.576L847.272 473.504C846.824 471.52 846.088 470.16 845.064 469.424C844.072 468.688 842.808 468.32 841.272 468.32C839.768 468.32 838.456 468.688 837.336 469.424C836.248 470.16 835.4 471.264 834.792 472.736C834.216 474.176 833.928 475.984 833.928 478.16C833.928 480.304 834.2 482.112 834.744 483.584C835.288 485.056 836.104 486.16 837.192 486.896C838.312 487.632 839.688 488 841.32 488C842.856 488 844.152 487.584 845.208 486.752C846.296 485.888 847.032 484.576 847.416 482.816L854.904 484.928ZM867.752 462.32V494H859.496V462.32H867.752ZM903.577 494H895.081L892.873 486.848H882.025L879.769 494H871.465L882.601 462.32H892.489L903.577 494ZM883.561 481.232H891.337L887.449 468.416L883.561 481.232Z" fill="black"/>
</g>
<defs>
<clipPath id="clip0_46_777">
<rect width="1600" height="900" fill="white"/>
</clipPath>
</defs>
</svg>
