<svg width="1600" height="900" viewBox="0 0 1600 900" fill="none" xmlns="http://www.w3.org/2000/svg">
<g clip-path="url(#clip0_46_781)">
<rect width="1600" height="900" fill="white"/>
<circle cx="800" cy="450" r="510" fill="black"/>
<circle cx="800" cy="450" r="226" fill="white"/>
<path d="M778.455 434.25H797.355V438H774.455V405H778.455V434.25ZM830.638 438H826.388L822.888 428.85H807.938L804.438 438H800.238L813.088 405H817.838L830.638 438ZM809.388 425.1H821.438L815.388 408.85L809.388 425.1ZM696.069 497V464H721.769V470.65H704.669V477.35H718.269V483.6H704.669V490.35H722.419V497H696.069ZM740.512 463.5C743.579 463.5 746.279 463.983 748.612 464.95C750.979 465.883 753.029 467.267 754.762 469.1L750.612 474.65C749.179 473.15 747.629 472.033 745.962 471.3C744.329 470.533 742.462 470.15 740.362 470.15C739.129 470.15 738.129 470.283 737.362 470.55C736.595 470.817 736.045 471.183 735.712 471.65C735.379 472.117 735.212 472.65 735.212 473.25C735.212 473.95 735.529 474.55 736.162 475.05C736.829 475.517 737.895 475.917 739.362 476.25L744.912 477.5C748.212 478.267 750.629 479.383 752.162 480.85C753.695 482.317 754.462 484.267 754.462 486.7C754.462 489.033 753.862 491.017 752.662 492.65C751.462 494.25 749.812 495.467 747.712 496.3C745.612 497.1 743.212 497.5 740.512 497.5C738.312 497.5 736.212 497.267 734.212 496.8C732.212 496.3 730.412 495.6 728.812 494.7C727.212 493.8 725.862 492.767 724.762 491.6L728.912 485.85C729.745 486.817 730.762 487.683 731.962 488.45C733.195 489.183 734.529 489.767 735.962 490.2C737.429 490.633 738.912 490.85 740.412 490.85C741.579 490.85 742.545 490.733 743.312 490.5C744.112 490.267 744.695 489.917 745.062 489.45C745.429 488.983 745.612 488.433 745.612 487.8C745.612 487.1 745.362 486.517 744.862 486.05C744.362 485.55 743.412 485.133 742.012 484.8L735.912 483.45C734.045 483.017 732.379 482.45 730.912 481.75C729.479 481.017 728.345 480.05 727.512 478.85C726.679 477.617 726.262 476.083 726.262 474.25C726.262 472.183 726.829 470.35 727.962 468.75C729.095 467.117 730.729 465.833 732.862 464.9C734.995 463.967 737.545 463.5 740.512 463.5ZM759.838 497V464H785.538V470.65H768.438V477.35H782.038V483.6H768.438V490.35H786.188V497H759.838ZM821.131 464V497H811.581L801.331 479.15L798.831 474.25H798.781L798.981 480.35V497H791.381V464H800.931L811.181 481.85L813.681 486.75H813.731L813.531 480.65V464H821.131ZM857.692 487.55C857.059 489.85 856.042 491.75 854.642 493.25C853.242 494.717 851.575 495.8 849.642 496.5C847.709 497.167 845.575 497.5 843.242 497.5C839.909 497.5 837.025 496.833 834.592 495.5C832.159 494.133 830.292 492.183 828.992 489.65C827.692 487.117 827.042 484.067 827.042 480.5C827.042 476.933 827.692 473.883 828.992 471.35C830.292 468.817 832.159 466.883 834.592 465.55C837.025 464.183 839.892 463.5 843.192 463.5C845.492 463.5 847.609 463.833 849.542 464.5C851.475 465.133 853.109 466.117 854.442 467.45C855.775 468.783 856.725 470.5 857.292 472.6L849.742 475.65C849.275 473.583 848.509 472.167 847.442 471.4C846.409 470.633 845.092 470.25 843.492 470.25C841.925 470.25 840.559 470.633 839.392 471.4C838.259 472.167 837.375 473.317 836.742 474.85C836.142 476.35 835.842 478.233 835.842 480.5C835.842 482.733 836.125 484.617 836.692 486.15C837.259 487.683 838.109 488.833 839.242 489.6C840.409 490.367 841.842 490.75 843.542 490.75C845.142 490.75 846.492 490.317 847.592 489.45C848.725 488.55 849.492 487.183 849.892 485.35L857.692 487.55ZM871.075 464V497H862.475V464H871.075ZM908.393 497H899.543L897.243 489.55H885.943L883.593 497H874.943L886.543 464H896.843L908.393 497ZM887.543 483.7H895.643L891.593 470.35L887.543 483.7Z" fill="black"/>
</g>
<defs>
<clipPath id="clip0_46_781">
<rect width="1600" height="900" fill="white"/>
</clipPath>
</defs>
</svg>
