<svg width="1600" height="900" viewBox="0 0 1600 900" fill="none" xmlns="http://www.w3.org/2000/svg">
<g clip-path="url(#clip0_46_785)">
<rect width="1600" height="900" fill="white"/>
<circle cx="800" cy="450" r="525" fill="black"/>
<circle cx="800" cy="450" r="250" fill="white"/>
<path d="M775.809 431.8H796.977V436H771.329V399.04H775.809V431.8ZM834.254 436H829.494L825.574 425.752H808.83L804.91 436H800.206L814.598 399.04H819.918L834.254 436ZM810.454 421.552H823.95L817.174 403.352L810.454 421.552ZM683.537 502V465.04H712.321V472.488H693.169V479.992H708.401V486.992H693.169V494.552H713.049V502H683.537ZM733.313 464.48C736.748 464.48 739.772 465.021 742.385 466.104C745.036 467.149 747.332 468.699 749.273 470.752L744.625 476.968C743.02 475.288 741.284 474.037 739.417 473.216C737.588 472.357 735.497 471.928 733.145 471.928C731.764 471.928 730.644 472.077 729.785 472.376C728.927 472.675 728.311 473.085 727.937 473.608C727.564 474.131 727.377 474.728 727.377 475.4C727.377 476.184 727.732 476.856 728.441 477.416C729.188 477.939 730.383 478.387 732.025 478.76L738.241 480.16C741.937 481.019 744.644 482.269 746.361 483.912C748.079 485.555 748.937 487.739 748.937 490.464C748.937 493.077 748.265 495.299 746.921 497.128C745.577 498.92 743.729 500.283 741.377 501.216C739.025 502.112 736.337 502.56 733.313 502.56C730.849 502.56 728.497 502.299 726.257 501.776C724.017 501.216 722.001 500.432 720.209 499.424C718.417 498.416 716.905 497.259 715.673 495.952L720.321 489.512C721.255 490.595 722.393 491.565 723.737 492.424C725.119 493.245 726.612 493.899 728.217 494.384C729.86 494.869 731.521 495.112 733.201 495.112C734.508 495.112 735.591 494.981 736.449 494.72C737.345 494.459 737.999 494.067 738.409 493.544C738.82 493.021 739.025 492.405 739.025 491.696C739.025 490.912 738.745 490.259 738.185 489.736C737.625 489.176 736.561 488.709 734.993 488.336L728.161 486.824C726.071 486.339 724.204 485.704 722.561 484.92C720.956 484.099 719.687 483.016 718.753 481.672C717.82 480.291 717.353 478.573 717.353 476.52C717.353 474.205 717.988 472.152 719.257 470.36C720.527 468.531 722.356 467.093 724.745 466.048C727.135 465.003 729.991 464.48 733.313 464.48ZM754.959 502V465.04H783.743V472.488H764.591V479.992H779.823V486.992H764.591V494.552H784.471V502H754.959ZM823.607 465.04V502H812.911L801.431 482.008L798.631 476.52H798.575L798.799 483.352V502H790.287V465.04H800.983L812.463 485.032L815.263 490.52H815.319L815.095 483.688V465.04H823.607ZM864.555 491.416C863.846 493.992 862.707 496.12 861.139 497.8C859.571 499.443 857.704 500.656 855.539 501.44C853.374 502.187 850.984 502.56 848.371 502.56C844.638 502.56 841.408 501.813 838.683 500.32C835.958 498.789 833.867 496.605 832.411 493.768C830.955 490.931 830.227 487.515 830.227 483.52C830.227 479.525 830.955 476.109 832.411 473.272C833.867 470.435 835.958 468.269 838.683 466.776C841.408 465.245 844.619 464.48 848.315 464.48C850.891 464.48 853.262 464.853 855.427 465.6C857.592 466.309 859.422 467.411 860.915 468.904C862.408 470.397 863.472 472.32 864.107 474.672L855.651 478.088C855.128 475.773 854.27 474.187 853.075 473.328C851.918 472.469 850.443 472.04 848.651 472.04C846.896 472.04 845.366 472.469 844.059 473.328C842.79 474.187 841.8 475.475 841.091 477.192C840.419 478.872 840.083 480.981 840.083 483.52C840.083 486.021 840.4 488.131 841.035 489.848C841.67 491.565 842.622 492.853 843.891 493.712C845.198 494.571 846.803 495 848.707 495C850.499 495 852.011 494.515 853.243 493.544C854.512 492.536 855.371 491.005 855.819 488.952L864.555 491.416ZM879.544 465.04V502H869.912V465.04H879.544ZM921.34 502H911.428L908.852 493.656H896.196L893.564 502H883.876L896.868 465.04H908.404L921.34 502ZM897.988 487.104H907.06L902.524 472.152L897.988 487.104Z" fill="black"/>
</g>
<defs>
<clipPath id="clip0_46_785">
<rect width="1600" height="900" fill="white"/>
</clipPath>
</defs>
</svg>
