<svg width="1600" height="900" viewBox="0 0 1600 900" fill="none" xmlns="http://www.w3.org/2000/svg">
<g clip-path="url(#clip0_46_789)">
<rect width="1600" height="900" fill="white"/>
<circle cx="800" cy="450" r="550" fill="black"/>
<circle cx="800" cy="450" r="265" fill="white"/>
<path d="M773.546 431.5H796.226V436H768.746V396.4H773.546V431.5ZM836.165 436H831.065L826.865 425.02H808.925L804.725 436H799.685L815.105 396.4H820.805L836.165 436ZM810.665 420.52H825.125L817.865 401.02L810.665 420.52ZM674.683 506V466.4H705.523V474.38H685.003V482.42H701.323V489.92H685.003V498.02H706.303V506H674.683ZM728.014 465.8C731.694 465.8 734.934 466.38 737.734 467.54C740.574 468.66 743.034 470.32 745.114 472.52L740.134 479.18C738.414 477.38 736.554 476.04 734.554 475.16C732.594 474.24 730.354 473.78 727.834 473.78C726.354 473.78 725.154 473.94 724.234 474.26C723.314 474.58 722.654 475.02 722.254 475.58C721.854 476.14 721.654 476.78 721.654 477.5C721.654 478.34 722.034 479.06 722.794 479.66C723.594 480.22 724.874 480.7 726.634 481.1L733.294 482.6C737.254 483.52 740.154 484.86 741.994 486.62C743.834 488.38 744.754 490.72 744.754 493.64C744.754 496.44 744.034 498.82 742.594 500.78C741.154 502.7 739.174 504.16 736.654 505.16C734.134 506.12 731.254 506.6 728.014 506.6C725.374 506.6 722.854 506.32 720.454 505.76C718.054 505.16 715.894 504.32 713.974 503.24C712.054 502.16 710.434 500.92 709.114 499.52L714.094 492.62C715.094 493.78 716.314 494.82 717.754 495.74C719.234 496.62 720.834 497.32 722.554 497.84C724.314 498.36 726.094 498.62 727.894 498.62C729.294 498.62 730.454 498.48 731.374 498.2C732.334 497.92 733.034 497.5 733.474 496.94C733.914 496.38 734.134 495.72 734.134 494.96C734.134 494.12 733.834 493.42 733.234 492.86C732.634 492.26 731.494 491.76 729.814 491.36L722.494 489.74C720.254 489.22 718.254 488.54 716.494 487.7C714.774 486.82 713.414 485.66 712.414 484.22C711.414 482.74 710.914 480.9 710.914 478.7C710.914 476.22 711.594 474.02 712.954 472.1C714.314 470.14 716.274 468.6 718.834 467.48C721.394 466.36 724.454 465.8 728.014 465.8ZM751.206 506V466.4H782.046V474.38H761.526V482.42H777.846V489.92H761.526V498.02H782.826V506H751.206ZM824.758 466.4V506H813.298L800.998 484.58L797.998 478.7H797.938L798.178 486.02V506H789.058V466.4H800.518L812.818 487.82L815.818 493.7H815.878L815.638 486.38V466.4H824.758ZM868.63 494.66C867.87 497.42 866.65 499.7 864.97 501.5C863.29 503.26 861.29 504.56 858.97 505.4C856.65 506.2 854.09 506.6 851.29 506.6C847.29 506.6 843.83 505.8 840.91 504.2C837.99 502.56 835.75 500.22 834.19 497.18C832.63 494.14 831.85 490.48 831.85 486.2C831.85 481.92 832.63 478.26 834.19 475.22C835.75 472.18 837.99 469.86 840.91 468.26C843.83 466.62 847.27 465.8 851.23 465.8C853.99 465.8 856.53 466.2 858.85 467C861.17 467.76 863.13 468.94 864.73 470.54C866.33 472.14 867.47 474.2 868.15 476.72L859.09 480.38C858.53 477.9 857.61 476.2 856.33 475.28C855.09 474.36 853.51 473.9 851.59 473.9C849.71 473.9 848.07 474.36 846.67 475.28C845.31 476.2 844.25 477.58 843.49 479.42C842.77 481.22 842.41 483.48 842.41 486.2C842.41 488.88 842.75 491.14 843.43 492.98C844.11 494.82 845.13 496.2 846.49 497.12C847.89 498.04 849.61 498.5 851.65 498.5C853.57 498.5 855.19 497.98 856.51 496.94C857.87 495.86 858.79 494.22 859.27 492.02L868.63 494.66ZM884.69 466.4V506H874.37V466.4H884.69ZM929.472 506H918.852L916.092 497.06H902.532L899.712 506H889.332L903.252 466.4H915.612L929.472 506ZM904.452 490.04H914.172L909.312 474.02L904.452 490.04Z" fill="black"/>
</g>
<defs>
<clipPath id="clip0_46_789">
<rect width="1600" height="900" fill="white"/>
</clipPath>
</defs>
</svg>
