<svg width="1600" height="900" viewBox="0 0 1600 900" fill="none" xmlns="http://www.w3.org/2000/svg">
<g clip-path="url(#clip0_46_793)">
<rect width="1600" height="900" fill="white"/>
<circle cx="800" cy="450" r="570" fill="black"/>
<circle cx="800" cy="450" r="285" fill="white"/>
<path d="M772.282 431.2H796.474V436H767.162V393.76H772.282V431.2ZM839.076 436H833.636L829.156 424.288H810.02L805.54 436H800.164L816.612 393.76H822.692L839.076 436ZM811.876 419.488H827.3L819.556 398.688L811.876 419.488ZM666.828 511V468.76H699.724V477.272H677.836V485.848H695.244V493.848H677.836V502.488H700.556V511H666.828ZM723.715 468.12C727.641 468.12 731.097 468.739 734.083 469.976C737.113 471.171 739.737 472.941 741.955 475.288L736.643 482.392C734.809 480.472 732.825 479.043 730.691 478.104C728.601 477.123 726.211 476.632 723.523 476.632C721.945 476.632 720.665 476.803 719.683 477.144C718.702 477.485 717.998 477.955 717.571 478.552C717.145 479.149 716.931 479.832 716.931 480.6C716.931 481.496 717.337 482.264 718.147 482.904C719.001 483.501 720.366 484.013 722.243 484.44L729.347 486.04C733.571 487.021 736.665 488.451 738.627 490.328C740.59 492.205 741.571 494.701 741.571 497.816C741.571 500.803 740.803 503.341 739.267 505.432C737.731 507.48 735.619 509.037 732.931 510.104C730.243 511.128 727.171 511.64 723.715 511.64C720.899 511.64 718.211 511.341 715.651 510.744C713.091 510.104 710.787 509.208 708.739 508.056C706.691 506.904 704.963 505.581 703.555 504.088L708.867 496.728C709.934 497.965 711.235 499.075 712.771 500.056C714.35 500.995 716.057 501.741 717.891 502.296C719.769 502.851 721.667 503.128 723.587 503.128C725.081 503.128 726.318 502.979 727.299 502.68C728.323 502.381 729.07 501.933 729.539 501.336C730.009 500.739 730.243 500.035 730.243 499.224C730.243 498.328 729.923 497.581 729.283 496.984C728.643 496.344 727.427 495.811 725.635 495.384L717.827 493.656C715.438 493.101 713.305 492.376 711.427 491.48C709.593 490.541 708.142 489.304 707.075 487.768C706.009 486.189 705.475 484.227 705.475 481.88C705.475 479.235 706.201 476.888 707.651 474.84C709.102 472.749 711.193 471.107 713.923 469.912C716.654 468.717 719.918 468.12 723.715 468.12ZM748.453 511V468.76H781.349V477.272H759.461V485.848H776.869V493.848H759.461V502.488H782.181V511H748.453ZM826.908 468.76V511H814.684L801.564 488.152L798.364 481.88H798.3L798.556 489.688V511H788.828V468.76H801.052L814.172 491.608L817.372 497.88H817.436L817.18 490.072V468.76H826.908ZM873.706 498.904C872.895 501.848 871.594 504.28 869.802 506.2C868.01 508.077 865.876 509.464 863.402 510.36C860.927 511.213 858.196 511.64 855.21 511.64C850.943 511.64 847.252 510.787 844.138 509.08C841.023 507.331 838.634 504.835 836.97 501.592C835.306 498.349 834.474 494.445 834.474 489.88C834.474 485.315 835.306 481.411 836.97 478.168C838.634 474.925 841.023 472.451 844.138 470.744C847.252 468.995 850.922 468.12 855.146 468.12C858.09 468.12 860.799 468.547 863.274 469.4C865.748 470.211 867.839 471.469 869.546 473.176C871.252 474.883 872.468 477.08 873.194 479.768L863.53 483.672C862.932 481.027 861.951 479.213 860.586 478.232C859.263 477.251 857.578 476.76 855.53 476.76C853.524 476.76 851.775 477.251 850.282 478.232C848.831 479.213 847.7 480.685 846.89 482.648C846.122 484.568 845.738 486.979 845.738 489.88C845.738 492.739 846.1 495.149 846.826 497.112C847.551 499.075 848.639 500.547 850.09 501.528C851.583 502.509 853.418 503 855.594 503C857.642 503 859.37 502.445 860.778 501.336C862.228 500.184 863.21 498.435 863.722 496.088L873.706 498.904ZM890.836 468.76V511H879.828V468.76H890.836ZM938.603 511H927.275L924.331 501.464H909.867L906.859 511H895.787L910.635 468.76H923.819L938.603 511ZM911.915 493.976H922.283L917.099 476.888L911.915 493.976Z" fill="black"/>
</g>
<defs>
<clipPath id="clip0_46_793">
<rect width="1600" height="900" fill="white"/>
</clipPath>
</defs>
</svg>
