<svg width="1600" height="900" viewBox="0 0 1600 900" fill="none" xmlns="http://www.w3.org/2000/svg">
<g clip-path="url(#clip0_46_1117)">
<rect width="1600" height="900" fill="white"/>
<circle cx="800" cy="450" r="590" fill="black"/>
<circle cx="800" cy="450" r="300" fill="white"/>
<path d="M770.459 428.975H795.785V434H765.099V389.78H770.459V428.975ZM840.384 434H834.689L829.999 421.739H809.966L805.276 434H799.648L816.867 389.78H823.232L840.384 434ZM811.909 416.714H828.056L819.949 394.939L811.909 416.714ZM660.062 513V468.78H694.5V477.691H671.586V486.669H689.81V495.044H671.586V504.089H695.371V513H660.062ZM719.616 468.11C723.725 468.11 727.343 468.758 730.47 470.053C733.641 471.304 736.388 473.157 738.711 475.614L733.15 483.051C731.229 481.041 729.152 479.545 726.919 478.562C724.73 477.535 722.229 477.021 719.415 477.021C717.762 477.021 716.422 477.2 715.395 477.557C714.368 477.914 713.631 478.406 713.184 479.031C712.737 479.656 712.514 480.371 712.514 481.175C712.514 482.113 712.938 482.917 713.787 483.587C714.68 484.212 716.11 484.748 718.075 485.195L725.512 486.87C729.934 487.897 733.172 489.394 735.227 491.359C737.282 493.324 738.309 495.937 738.309 499.198C738.309 502.325 737.505 504.982 735.897 507.171C734.289 509.315 732.078 510.945 729.264 512.062C726.45 513.134 723.234 513.67 719.616 513.67C716.668 513.67 713.854 513.357 711.174 512.732C708.494 512.062 706.082 511.124 703.938 509.918C701.794 508.712 699.985 507.327 698.511 505.764L704.072 498.059C705.189 499.354 706.551 500.516 708.159 501.543C709.812 502.526 711.598 503.307 713.519 503.888C715.484 504.469 717.472 504.759 719.482 504.759C721.045 504.759 722.341 504.603 723.368 504.29C724.44 503.977 725.222 503.508 725.713 502.883C726.204 502.258 726.45 501.521 726.45 500.672C726.45 499.734 726.115 498.952 725.445 498.327C724.775 497.657 723.502 497.099 721.626 496.652L713.452 494.843C710.951 494.262 708.717 493.503 706.752 492.565C704.831 491.582 703.313 490.287 702.196 488.679C701.079 487.026 700.521 484.972 700.521 482.515C700.521 479.746 701.28 477.289 702.799 475.145C704.318 472.956 706.506 471.237 709.365 469.986C712.224 468.735 715.641 468.11 719.616 468.11ZM745.514 513V468.78H779.952V477.691H757.038V486.669H775.262V495.044H757.038V504.089H780.823V513H745.514ZM827.646 468.78V513H814.849L801.114 489.081L797.764 482.515H797.697L797.965 490.689V513H787.781V468.78H800.578L814.313 492.699L817.663 499.265H817.73L817.462 491.091V468.78H827.646ZM876.637 500.337C875.789 503.419 874.426 505.965 872.55 507.975C870.674 509.94 868.441 511.392 865.85 512.33C863.26 513.223 860.401 513.67 857.274 513.67C852.808 513.67 848.944 512.777 845.683 510.99C842.423 509.159 839.921 506.546 838.179 503.151C836.437 499.756 835.566 495.669 835.566 490.89C835.566 486.111 836.437 482.024 838.179 478.629C839.921 475.234 842.423 472.644 845.683 470.857C848.944 469.026 852.785 468.11 857.207 468.11C860.289 468.11 863.126 468.557 865.716 469.45C868.307 470.299 870.496 471.616 872.282 473.403C874.069 475.19 875.342 477.49 876.101 480.304L865.984 484.391C865.359 481.622 864.332 479.723 862.902 478.696C861.518 477.669 859.753 477.155 857.609 477.155C855.51 477.155 853.679 477.669 852.115 478.696C850.597 479.723 849.413 481.264 848.564 483.319C847.76 485.329 847.358 487.853 847.358 490.89C847.358 493.883 847.738 496.406 848.497 498.461C849.257 500.516 850.396 502.057 851.914 503.084C853.478 504.111 855.398 504.625 857.676 504.625C859.82 504.625 861.629 504.044 863.103 502.883C864.622 501.677 865.649 499.846 866.185 497.389L876.637 500.337ZM894.571 468.78V513H883.047V468.78H894.571ZM944.577 513H932.718L929.636 503.017H914.494L911.345 513H899.754L915.298 468.78H929.1L944.577 513ZM916.638 495.178H927.492L922.065 477.289L916.638 495.178Z" fill="black"/>
</g>
<defs>
<clipPath id="clip0_46_1117">
<rect width="1600" height="900" fill="white"/>
</clipPath>
</defs>
</svg>
