<svg width="1600" height="900" viewBox="0 0 1600 900" fill="none" xmlns="http://www.w3.org/2000/svg">
<g clip-path="url(#clip0_46_1121)">
<rect width="1600" height="900" fill="white"/>
<circle cx="800" cy="450" r="605" fill="black"/>
<circle cx="800" cy="450" r="310" fill="white"/>
<path d="M769.637 427.75H796.097V433H764.037V386.8H769.637V427.75ZM842.693 433H836.743L831.843 420.19H810.913L806.013 433H800.133L818.123 386.8H824.773L842.693 433ZM812.943 414.94H829.813L821.343 392.19L812.943 414.94ZM654.297 515V468.8H690.277V478.11H666.337V487.49H685.377V496.24H666.337V505.69H691.187V515H654.297ZM716.517 468.1C720.81 468.1 724.59 468.777 727.857 470.13C731.17 471.437 734.04 473.373 736.467 475.94L730.657 483.71C728.65 481.61 726.48 480.047 724.147 479.02C721.86 477.947 719.247 477.41 716.307 477.41C714.58 477.41 713.18 477.597 712.107 477.97C711.033 478.343 710.263 478.857 709.797 479.51C709.33 480.163 709.097 480.91 709.097 481.75C709.097 482.73 709.54 483.57 710.427 484.27C711.36 484.923 712.853 485.483 714.907 485.95L722.677 487.7C727.297 488.773 730.68 490.337 732.827 492.39C734.973 494.443 736.047 497.173 736.047 500.58C736.047 503.847 735.207 506.623 733.527 508.91C731.847 511.15 729.537 512.853 726.597 514.02C723.657 515.14 720.297 515.7 716.517 515.7C713.437 515.7 710.497 515.373 707.697 514.72C704.897 514.02 702.377 513.04 700.137 511.78C697.897 510.52 696.007 509.073 694.467 507.44L700.277 499.39C701.443 500.743 702.867 501.957 704.547 503.03C706.273 504.057 708.14 504.873 710.147 505.48C712.2 506.087 714.277 506.39 716.377 506.39C718.01 506.39 719.363 506.227 720.437 505.9C721.557 505.573 722.373 505.083 722.887 504.43C723.4 503.777 723.657 503.007 723.657 502.12C723.657 501.14 723.307 500.323 722.607 499.67C721.907 498.97 720.577 498.387 718.617 497.92L710.077 496.03C707.463 495.423 705.13 494.63 703.077 493.65C701.07 492.623 699.483 491.27 698.317 489.59C697.15 487.863 696.567 485.717 696.567 483.15C696.567 480.257 697.36 477.69 698.947 475.45C700.533 473.163 702.82 471.367 705.807 470.06C708.793 468.753 712.363 468.1 716.517 468.1ZM743.574 515V468.8H779.554V478.11H755.614V487.49H774.654V496.24H755.614V505.69H780.464V515H743.574ZM829.384 468.8V515H816.014L801.664 490.01L798.164 483.15H798.094L798.374 491.69V515H787.734V468.8H801.104L815.454 493.79L818.954 500.65H819.024L818.744 492.11V468.8H829.384ZM880.569 501.77C879.682 504.99 878.259 507.65 876.299 509.75C874.339 511.803 872.005 513.32 869.299 514.3C866.592 515.233 863.605 515.7 860.339 515.7C855.672 515.7 851.635 514.767 848.229 512.9C844.822 510.987 842.209 508.257 840.389 504.71C838.569 501.163 837.659 496.893 837.659 491.9C837.659 486.907 838.569 482.637 840.389 479.09C842.209 475.543 844.822 472.837 848.229 470.97C851.635 469.057 855.649 468.1 860.269 468.1C863.489 468.1 866.452 468.567 869.159 469.5C871.865 470.387 874.152 471.763 876.019 473.63C877.885 475.497 879.215 477.9 880.009 480.84L869.439 485.11C868.785 482.217 867.712 480.233 866.219 479.16C864.772 478.087 862.929 477.55 860.689 477.55C858.495 477.55 856.582 478.087 854.949 479.16C853.362 480.233 852.125 481.843 851.239 483.99C850.399 486.09 849.979 488.727 849.979 491.9C849.979 495.027 850.375 497.663 851.169 499.81C851.962 501.957 853.152 503.567 854.739 504.64C856.372 505.713 858.379 506.25 860.759 506.25C862.999 506.25 864.889 505.643 866.429 504.43C868.015 503.17 869.089 501.257 869.649 498.69L880.569 501.77ZM899.305 468.8V515H887.265V468.8H899.305ZM951.55 515H939.16L935.94 504.57H920.12L916.83 515H904.72L920.96 468.8H935.38L951.55 515ZM922.36 496.38H933.7L928.03 477.69L922.36 496.38Z" fill="black"/>
</g>
<defs>
<clipPath id="clip0_46_1121">
<rect width="1600" height="900" fill="white"/>
</clipPath>
</defs>
</svg>
