<svg width="1600" height="900" viewBox="0 0 1600 900" fill="none" xmlns="http://www.w3.org/2000/svg">
<g clip-path="url(#clip0_46_1125)">
<rect width="1600" height="900" fill="white"/>
<circle cx="800" cy="450" r="615" fill="black"/>
<circle cx="800" cy="450" r="325" fill="white"/>
<path d="M767.814 426.525H795.408V432H761.974V383.82H767.814V426.525ZM844.001 432H837.796L832.686 418.641H810.859L805.749 432H799.617L818.378 383.82H825.313L844.001 432ZM812.976 413.166H830.569L821.736 389.441L812.976 413.166ZM647.531 518V469.82H685.053V479.529H660.087V489.311H679.943V498.436H660.087V508.291H686.002V518H647.531ZM712.417 469.09C716.895 469.09 720.837 469.796 724.243 471.207C727.699 472.57 730.692 474.589 733.222 477.266L727.163 485.369C725.071 483.179 722.808 481.549 720.374 480.478C717.99 479.359 715.264 478.799 712.198 478.799C710.398 478.799 708.938 478.994 707.818 479.383C706.699 479.772 705.896 480.308 705.409 480.989C704.923 481.67 704.679 482.449 704.679 483.325C704.679 484.347 705.142 485.223 706.066 485.953C707.04 486.634 708.597 487.218 710.738 487.705L718.841 489.53C723.659 490.649 727.188 492.28 729.426 494.421C731.665 496.562 732.784 499.409 732.784 502.962C732.784 506.369 731.908 509.264 730.156 511.649C728.404 513.985 725.995 515.761 722.929 516.978C719.863 518.146 716.359 518.73 712.417 518.73C709.205 518.73 706.139 518.389 703.219 517.708C700.299 516.978 697.671 515.956 695.335 514.642C692.999 513.328 691.028 511.819 689.422 510.116L695.481 501.721C696.698 503.132 698.182 504.398 699.934 505.517C701.735 506.588 703.682 507.439 705.774 508.072C707.916 508.705 710.081 509.021 712.271 509.021C713.975 509.021 715.386 508.851 716.505 508.51C717.673 508.169 718.525 507.658 719.06 506.977C719.596 506.296 719.863 505.493 719.863 504.568C719.863 503.546 719.498 502.694 718.768 502.013C718.038 501.283 716.651 500.675 714.607 500.188L705.701 498.217C702.976 497.584 700.543 496.757 698.401 495.735C696.309 494.664 694.654 493.253 693.437 491.501C692.221 489.7 691.612 487.462 691.612 484.785C691.612 481.768 692.44 479.091 694.094 476.755C695.749 474.37 698.134 472.497 701.248 471.134C704.363 469.771 708.086 469.09 712.417 469.09ZM740.634 518V469.82H778.156V479.529H753.19V489.311H773.046V498.436H753.19V508.291H779.105V518H740.634ZM830.122 469.82V518H816.179L801.214 491.939L797.564 484.785H797.491L797.783 493.691V518H786.687V469.82H800.63L815.595 495.881L819.245 503.035H819.318L819.026 494.129V469.82H830.122ZM883.5 504.203C882.576 507.561 881.091 510.335 879.047 512.525C877.003 514.666 874.57 516.248 871.747 517.27C868.925 518.243 865.81 518.73 862.403 518.73C857.537 518.73 853.327 517.757 849.774 515.81C846.222 513.815 843.496 510.968 841.598 507.269C839.7 503.57 838.751 499.117 838.751 493.91C838.751 488.703 839.7 484.25 841.598 480.551C843.496 476.852 846.222 474.03 849.774 472.083C853.327 470.088 857.512 469.09 862.33 469.09C865.688 469.09 868.779 469.577 871.601 470.55C874.424 471.475 876.809 472.91 878.755 474.857C880.702 476.804 882.089 479.31 882.916 482.376L871.893 486.829C871.212 483.812 870.093 481.743 868.535 480.624C867.027 479.505 865.104 478.945 862.768 478.945C860.481 478.945 858.486 479.505 856.782 480.624C855.128 481.743 853.838 483.422 852.913 485.661C852.037 487.851 851.599 490.601 851.599 493.91C851.599 497.171 852.013 499.92 852.84 502.159C853.668 504.398 854.909 506.077 856.563 507.196C858.267 508.315 860.359 508.875 862.841 508.875C865.177 508.875 867.148 508.242 868.754 506.977C870.409 505.663 871.528 503.668 872.112 500.991L883.5 504.203ZM903.04 469.82V518H890.484V469.82H903.04ZM957.524 518H944.603L941.245 507.123H924.747L921.316 518H908.687L925.623 469.82H940.661L957.524 518ZM927.083 498.582H938.909L932.996 479.091L927.083 498.582Z" fill="black"/>
</g>
<defs>
<clipPath id="clip0_46_1125">
<rect width="1600" height="900" fill="white"/>
</clipPath>
</defs>
</svg>
