<svg width="1600" height="900" viewBox="0 0 1600 900" fill="none" xmlns="http://www.w3.org/2000/svg">
<g clip-path="url(#clip0_46_1129)">
<rect width="1600" height="900" fill="white"/>
<circle cx="800" cy="450" r="630" fill="black"/>
<circle cx="800" cy="450" r="335" fill="white"/>
<path d="M766.55 425.225H795.656V431H760.39V380.18H766.55V425.225ZM846.912 431H840.367L834.977 416.909H811.954L806.564 431H800.096L819.885 380.18H827.2L846.912 431ZM814.187 411.134H832.744L823.427 386.109L814.187 411.134ZM639.676 521V470.18H679.254V480.421H652.92V490.739H673.864V500.364H652.92V510.759H680.255V521H639.676ZM708.118 469.41C712.841 469.41 716.999 470.154 720.592 471.643C724.237 473.08 727.394 475.211 730.063 478.034L723.672 486.581C721.465 484.271 719.078 482.551 716.511 481.422C713.996 480.241 711.121 479.651 707.887 479.651C705.988 479.651 704.448 479.856 703.267 480.267C702.087 480.678 701.24 481.242 700.726 481.961C700.213 482.68 699.956 483.501 699.956 484.425C699.956 485.503 700.444 486.427 701.419 487.197C702.446 487.916 704.089 488.532 706.347 489.045L714.894 490.97C719.976 492.151 723.698 493.87 726.059 496.129C728.421 498.388 729.601 501.391 729.601 505.138C729.601 508.731 728.677 511.786 726.829 514.301C724.981 516.765 722.44 518.639 719.206 519.922C715.972 521.154 712.276 521.77 708.118 521.77C704.73 521.77 701.496 521.411 698.416 520.692C695.336 519.922 692.564 518.844 690.1 517.458C687.636 516.072 685.557 514.481 683.863 512.684L690.254 503.829C691.538 505.318 693.103 506.652 694.951 507.833C696.851 508.962 698.904 509.861 701.111 510.528C703.37 511.195 705.654 511.529 707.964 511.529C709.761 511.529 711.25 511.349 712.43 510.99C713.662 510.631 714.561 510.092 715.125 509.373C715.69 508.654 715.972 507.807 715.972 506.832C715.972 505.754 715.587 504.856 714.817 504.137C714.047 503.367 712.584 502.725 710.428 502.212L701.034 500.133C698.16 499.466 695.593 498.593 693.334 497.515C691.127 496.386 689.382 494.897 688.098 493.049C686.815 491.15 686.173 488.788 686.173 485.965C686.173 482.782 687.046 479.959 688.791 477.495C690.537 474.98 693.052 473.003 696.337 471.566C699.623 470.129 703.55 469.41 708.118 469.41ZM737.881 521V470.18H777.459V480.421H751.125V490.739H772.069V500.364H751.125V510.759H778.46V521H737.881ZM832.272 470.18V521H817.565L801.78 493.511L797.93 485.965H797.853L798.161 495.359V521H786.457V470.18H801.164L816.949 497.669L820.799 505.215H820.876L820.568 495.821V470.18H832.272ZM888.576 506.447C887.6 509.989 886.035 512.915 883.879 515.225C881.723 517.484 879.156 519.152 876.179 520.23C873.201 521.257 869.916 521.77 866.323 521.77C861.189 521.77 856.749 520.743 853.002 518.69C849.254 516.585 846.38 513.582 844.378 509.681C842.376 505.78 841.375 501.083 841.375 495.59C841.375 490.097 842.376 485.4 844.378 481.499C846.38 477.598 849.254 474.62 853.002 472.567C856.749 470.462 861.164 469.41 866.246 469.41C869.788 469.41 873.047 469.923 876.025 470.95C879.002 471.925 881.517 473.44 883.571 475.493C885.624 477.546 887.087 480.19 887.96 483.424L876.333 488.121C875.614 484.938 874.433 482.757 872.791 481.576C871.199 480.395 869.172 479.805 866.708 479.805C864.295 479.805 862.19 480.395 860.394 481.576C858.648 482.757 857.288 484.528 856.313 486.889C855.389 489.199 854.927 492.099 854.927 495.59C854.927 499.029 855.363 501.93 856.236 504.291C857.108 506.652 858.417 508.423 860.163 509.604C861.959 510.785 864.167 511.375 866.785 511.375C869.249 511.375 871.328 510.708 873.022 509.373C874.767 507.987 875.948 505.882 876.564 503.059L888.576 506.447ZM909.186 470.18V521H895.942V470.18H909.186ZM966.655 521H953.026L949.484 509.527H932.082L928.463 521H915.142L933.006 470.18H948.868L966.655 521ZM934.546 500.518H947.02L940.783 479.959L934.546 500.518Z" fill="black"/>
</g>
<defs>
<clipPath id="clip0_46_1129">
<rect width="1600" height="900" fill="white"/>
</clipPath>
</defs>
</svg>
