<svg width="1600" height="900" viewBox="0 0 1600 900" fill="none" xmlns="http://www.w3.org/2000/svg">
<g clip-path="url(#clip0_46_1133)">
<rect width="1600" height="900" fill="white"/>
<circle cx="800" cy="450" r="650" fill="black"/>
<circle cx="800" cy="450" r="350" fill="white"/>
<path d="M764.728 428H794.968V434H758.328V381.2H764.728V428ZM848.22 434H841.42L835.82 419.36H811.9L806.3 434H799.58L820.14 381.2H827.74L848.22 434ZM814.22 413.36H833.5L823.82 387.36L814.22 413.36ZM632.91 528V475.2H674.03V485.84H646.67V496.56H668.43V506.56H646.67V517.36H675.07V528H632.91ZM704.019 474.4C708.926 474.4 713.246 475.173 716.979 476.72C720.766 478.213 724.046 480.427 726.819 483.36L720.179 492.24C717.886 489.84 715.406 488.053 712.739 486.88C710.126 485.653 707.139 485.04 703.779 485.04C701.806 485.04 700.206 485.253 698.979 485.68C697.752 486.107 696.872 486.693 696.339 487.44C695.806 488.187 695.539 489.04 695.539 490C695.539 491.12 696.046 492.08 697.059 492.88C698.126 493.627 699.832 494.267 702.179 494.8L711.059 496.8C716.339 498.027 720.206 499.813 722.659 502.16C725.112 504.507 726.339 507.627 726.339 511.52C726.339 515.253 725.379 518.427 723.459 521.04C721.539 523.6 718.899 525.547 715.539 526.88C712.179 528.16 708.339 528.8 704.019 528.8C700.499 528.8 697.139 528.427 693.939 527.68C690.739 526.88 687.859 525.76 685.299 524.32C682.739 522.88 680.579 521.227 678.819 519.36L685.459 510.16C686.792 511.707 688.419 513.093 690.339 514.32C692.312 515.493 694.446 516.427 696.739 517.12C699.086 517.813 701.459 518.16 703.859 518.16C705.726 518.16 707.272 517.973 708.499 517.6C709.779 517.227 710.712 516.667 711.299 515.92C711.886 515.173 712.179 514.293 712.179 513.28C712.179 512.16 711.779 511.227 710.979 510.48C710.179 509.68 708.659 509.013 706.419 508.48L696.659 506.32C693.672 505.627 691.006 504.72 688.659 503.6C686.366 502.427 684.552 500.88 683.219 498.96C681.886 496.987 681.219 494.533 681.219 491.6C681.219 488.293 682.126 485.36 683.939 482.8C685.752 480.187 688.366 478.133 691.779 476.64C695.192 475.147 699.272 474.4 704.019 474.4ZM734.942 528V475.2H776.062V485.84H748.702V496.56H770.462V506.56H748.702V517.36H777.102V528H734.942ZM833.01 475.2V528H817.73L801.33 499.44L797.33 491.6H797.25L797.57 501.36V528H785.41V475.2H800.69L817.09 503.76L821.09 511.6H821.17L820.85 501.84V475.2H833.01ZM891.507 512.88C890.494 516.56 888.867 519.6 886.627 522C884.387 524.347 881.721 526.08 878.627 527.2C875.534 528.267 872.121 528.8 868.387 528.8C863.054 528.8 858.441 527.733 854.547 525.6C850.654 523.413 847.667 520.293 845.587 516.24C843.507 512.187 842.467 507.307 842.467 501.6C842.467 495.893 843.507 491.013 845.587 486.96C847.667 482.907 850.654 479.813 854.547 477.68C858.441 475.493 863.027 474.4 868.307 474.4C871.987 474.4 875.374 474.933 878.467 476C881.561 477.013 884.174 478.587 886.307 480.72C888.441 482.853 889.961 485.6 890.867 488.96L878.787 493.84C878.041 490.533 876.814 488.267 875.107 487.04C873.454 485.813 871.347 485.2 868.787 485.2C866.281 485.2 864.094 485.813 862.227 487.04C860.414 488.267 859.001 490.107 857.987 492.56C857.027 494.96 856.547 497.973 856.547 501.6C856.547 505.173 857.001 508.187 857.907 510.64C858.814 513.093 860.174 514.933 861.987 516.16C863.854 517.387 866.147 518 868.867 518C871.427 518 873.587 517.307 875.347 515.92C877.161 514.48 878.387 512.293 879.027 509.36L891.507 512.88ZM912.92 475.2V528H899.16V475.2H912.92ZM972.629 528H958.469L954.789 516.08H936.709L932.949 528H919.109L937.669 475.2H954.149L972.629 528ZM939.269 506.72H952.229L945.749 485.36L939.269 506.72Z" fill="black"/>
</g>
<defs>
<clipPath id="clip0_46_1133">
<rect width="1600" height="900" fill="white"/>
</clipPath>
</defs>
</svg>
