<svg width="1600" height="900" viewBox="0 0 1600 900" fill="none" xmlns="http://www.w3.org/2000/svg">
<g clip-path="url(#clip0_46_1137)">
<rect width="1600" height="900" fill="white"/>
<circle cx="800" cy="450" r="670" fill="black"/>
<circle cx="800" cy="450" r="370" fill="white"/>
<path d="M762.964 431.7H794.716V438H756.244V382.56H762.964V431.7ZM850.631 438H843.491L837.611 422.628H812.495L806.615 438H799.559L821.147 382.56H829.127L850.631 438ZM814.931 416.328H835.175L825.011 389.028L814.931 416.328ZM624.556 537V481.56H667.732V492.732H639.004V503.988H661.852V514.488H639.004V525.828H668.824V537H624.556ZM699.22 480.72C704.372 480.72 708.908 481.532 712.828 483.156C716.804 484.724 720.248 487.048 723.16 490.128L716.188 499.452C713.78 496.932 711.176 495.056 708.376 493.824C705.632 492.536 702.496 491.892 698.968 491.892C696.896 491.892 695.216 492.116 693.928 492.564C692.64 493.012 691.716 493.628 691.156 494.412C690.596 495.196 690.316 496.092 690.316 497.1C690.316 498.276 690.848 499.284 691.912 500.124C693.032 500.908 694.824 501.58 697.288 502.14L706.612 504.24C712.156 505.528 716.216 507.404 718.792 509.868C721.368 512.332 722.656 515.608 722.656 519.696C722.656 523.616 721.648 526.948 719.632 529.692C717.616 532.38 714.844 534.424 711.316 535.824C707.788 537.168 703.756 537.84 699.22 537.84C695.524 537.84 691.996 537.448 688.636 536.664C685.276 535.824 682.252 534.648 679.564 533.136C676.876 531.624 674.608 529.888 672.76 527.928L679.732 518.268C681.132 519.892 682.84 521.348 684.856 522.636C686.928 523.868 689.168 524.848 691.576 525.576C694.04 526.304 696.532 526.668 699.052 526.668C701.012 526.668 702.636 526.472 703.924 526.08C705.268 525.688 706.248 525.1 706.864 524.316C707.48 523.532 707.788 522.608 707.788 521.544C707.788 520.368 707.368 519.388 706.528 518.604C705.688 517.764 704.092 517.064 701.74 516.504L691.492 514.236C688.356 513.508 685.556 512.556 683.092 511.38C680.684 510.148 678.78 508.524 677.38 506.508C675.98 504.436 675.28 501.86 675.28 498.78C675.28 495.308 676.232 492.228 678.136 489.54C680.04 486.796 682.784 484.64 686.368 483.072C689.952 481.504 694.236 480.72 699.22 480.72ZM731.689 537V481.56H774.865V492.732H746.137V503.988H768.985V514.488H746.137V525.828H775.957V537H731.689ZM834.661 481.56V537H818.617L801.397 507.012L797.197 498.78H797.113L797.449 509.028V537H784.681V481.56H800.725L817.945 511.548L822.145 519.78H822.229L821.893 509.532V481.56H834.661ZM896.083 521.124C895.019 524.988 893.311 528.18 890.959 530.7C888.607 533.164 885.807 534.984 882.559 536.16C879.311 537.28 875.727 537.84 871.807 537.84C866.207 537.84 861.363 536.72 857.275 534.48C853.187 532.184 850.051 528.908 847.867 524.652C845.683 520.396 844.591 515.272 844.591 509.28C844.591 503.288 845.683 498.164 847.867 493.908C850.051 489.652 853.187 486.404 857.275 484.164C861.363 481.868 866.179 480.72 871.723 480.72C875.587 480.72 879.143 481.28 882.391 482.4C885.639 483.464 888.383 485.116 890.623 487.356C892.863 489.596 894.459 492.48 895.411 496.008L882.727 501.132C881.943 497.66 880.655 495.28 878.863 493.992C877.127 492.704 874.915 492.06 872.227 492.06C869.595 492.06 867.299 492.704 865.339 493.992C863.435 495.28 861.951 497.212 860.887 499.788C859.879 502.308 859.375 505.472 859.375 509.28C859.375 513.032 859.851 516.196 860.803 518.772C861.755 521.348 863.183 523.28 865.087 524.568C867.047 525.856 869.455 526.5 872.311 526.5C874.999 526.5 877.267 525.772 879.115 524.316C881.019 522.804 882.307 520.508 882.979 517.428L896.083 521.124ZM918.566 481.56V537H904.118V481.56H918.566ZM981.261 537H966.393L962.529 524.484H943.545L939.597 537H925.065L944.553 481.56H961.857L981.261 537ZM946.233 514.656H959.841L953.037 492.228L946.233 514.656Z" fill="black"/>
</g>
<defs>
<clipPath id="clip0_46_1137">
<rect width="1600" height="900" fill="white"/>
</clipPath>
</defs>
</svg>
