<svg width="1600" height="900" viewBox="0 0 1600 900" fill="none" xmlns="http://www.w3.org/2000/svg">
<g clip-path="url(#clip0_46_1141)">
<rect width="1600" height="900" fill="white"/>
<circle cx="800" cy="450" r="690" fill="black"/>
<circle cx="800" cy="450" r="390" fill="white"/>
<path d="M761.7 422.4H794.964V429H754.66V370.92H761.7V422.4ZM853.542 429H846.062L839.902 412.896H813.59L807.43 429H800.038L822.654 370.92H831.014L853.542 429ZM816.142 406.296H837.35L826.702 377.696L816.142 406.296ZM616.701 532V473.92H661.933V485.624H631.837V497.416H655.773V508.416H631.837V520.296H663.077V532H616.701ZM694.921 473.04C700.318 473.04 705.07 473.891 709.177 475.592C713.342 477.235 716.95 479.669 720.001 482.896L712.697 492.664C710.174 490.024 707.446 488.059 704.513 486.768C701.638 485.419 698.353 484.744 694.657 484.744C692.486 484.744 690.726 484.979 689.377 485.448C688.028 485.917 687.06 486.563 686.473 487.384C685.886 488.205 685.593 489.144 685.593 490.2C685.593 491.432 686.15 492.488 687.265 493.368C688.438 494.189 690.316 494.893 692.897 495.48L702.665 497.68C708.473 499.029 712.726 500.995 715.425 503.576C718.124 506.157 719.473 509.589 719.473 513.872C719.473 517.979 718.417 521.469 716.305 524.344C714.193 527.16 711.289 529.301 707.593 530.768C703.897 532.176 699.673 532.88 694.921 532.88C691.049 532.88 687.353 532.469 683.833 531.648C680.313 530.768 677.145 529.536 674.329 527.952C671.513 526.368 669.137 524.549 667.201 522.496L674.505 512.376C675.972 514.077 677.761 515.603 679.873 516.952C682.044 518.243 684.39 519.269 686.913 520.032C689.494 520.795 692.105 521.176 694.745 521.176C696.798 521.176 698.5 520.971 699.849 520.56C701.257 520.149 702.284 519.533 702.929 518.712C703.574 517.891 703.897 516.923 703.897 515.808C703.897 514.576 703.457 513.549 702.577 512.728C701.697 511.848 700.025 511.115 697.561 510.528L686.825 508.152C683.54 507.389 680.606 506.392 678.025 505.16C675.502 503.869 673.508 502.168 672.041 500.056C670.574 497.885 669.841 495.187 669.841 491.96C669.841 488.323 670.838 485.096 672.833 482.28C674.828 479.405 677.702 477.147 681.457 475.504C685.212 473.861 689.7 473.04 694.921 473.04ZM728.936 532V473.92H774.168V485.624H744.072V497.416H768.008V508.416H744.072V520.296H775.312V532H728.936ZM836.811 473.92V532H820.003L801.963 500.584L797.563 491.96H797.475L797.827 502.696V532H784.451V473.92H801.259L819.299 505.336L823.699 513.96H823.787L823.435 503.224V473.92H836.811ZM901.158 515.368C900.043 519.416 898.254 522.76 895.79 525.4C893.326 527.981 890.393 529.888 886.99 531.12C883.587 532.293 879.833 532.88 875.726 532.88C869.859 532.88 864.785 531.707 860.502 529.36C856.219 526.955 852.934 523.523 850.646 519.064C848.358 514.605 847.214 509.237 847.214 502.96C847.214 496.683 848.358 491.315 850.646 486.856C852.934 482.397 856.219 478.995 860.502 476.648C864.785 474.243 869.83 473.04 875.638 473.04C879.686 473.04 883.411 473.627 886.814 474.8C890.217 475.915 893.091 477.645 895.438 479.992C897.785 482.339 899.457 485.36 900.454 489.056L887.166 494.424C886.345 490.787 884.995 488.293 883.118 486.944C881.299 485.595 878.982 484.92 876.166 484.92C873.409 484.92 871.003 485.595 868.95 486.944C866.955 488.293 865.401 490.317 864.286 493.016C863.23 495.656 862.702 498.971 862.702 502.96C862.702 506.891 863.201 510.205 864.198 512.904C865.195 515.603 866.691 517.627 868.686 518.976C870.739 520.325 873.262 521 876.254 521C879.07 521 881.446 520.237 883.382 518.712C885.377 517.128 886.726 514.723 887.43 511.496L901.158 515.368ZM924.712 473.92V532H909.576V473.92H924.712ZM990.392 532H974.816L970.768 518.888H950.88L946.744 532H931.52L951.936 473.92H970.064L990.392 532ZM953.696 508.592H967.952L960.824 485.096L953.696 508.592Z" fill="black"/>
</g>
<defs>
<clipPath id="clip0_46_1141">
<rect width="1600" height="900" fill="white"/>
</clipPath>
</defs>
</svg>
