<svg width="1600" height="900" viewBox="0 0 1600 900" fill="none" xmlns="http://www.w3.org/2000/svg">
<g clip-path="url(#clip0_46_1145)">
<rect width="1600" height="900" fill="white"/>
<circle cx="800" cy="450" r="700" fill="black"/>
<circle cx="800" cy="450" r="420" fill="white"/>
<path d="M760.318 421.25H794.338V428H753.118V368.6H760.318V421.25ZM854.248 428H846.598L840.298 411.53H813.388L807.088 428H799.528L822.658 368.6H831.208L854.248 428ZM815.998 404.78H837.688L826.798 375.53L815.998 404.78ZM612.024 534V474.6H658.284V486.57H627.504V498.63H651.984V509.88H627.504V522.03H659.454V534H612.024ZM692.021 473.7C697.541 473.7 702.401 474.57 706.601 476.31C710.861 477.99 714.551 480.48 717.671 483.78L710.201 493.77C707.621 491.07 704.831 489.06 701.831 487.74C698.891 486.36 695.531 485.67 691.751 485.67C689.531 485.67 687.731 485.91 686.351 486.39C684.971 486.87 683.981 487.53 683.381 488.37C682.781 489.21 682.481 490.17 682.481 491.25C682.481 492.51 683.051 493.59 684.191 494.49C685.391 495.33 687.311 496.05 689.951 496.65L699.941 498.9C705.881 500.28 710.231 502.29 712.991 504.93C715.751 507.57 717.131 511.08 717.131 515.46C717.131 519.66 716.051 523.23 713.891 526.17C711.731 529.05 708.761 531.24 704.981 532.74C701.201 534.18 696.881 534.9 692.021 534.9C688.061 534.9 684.281 534.48 680.681 533.64C677.081 532.74 673.841 531.48 670.961 529.86C668.081 528.24 665.651 526.38 663.671 524.28L671.141 513.93C672.641 515.67 674.471 517.23 676.631 518.61C678.851 519.93 681.251 520.98 683.831 521.76C686.471 522.54 689.141 522.93 691.841 522.93C693.941 522.93 695.681 522.72 697.061 522.3C698.501 521.88 699.551 521.25 700.211 520.41C700.871 519.57 701.201 518.58 701.201 517.44C701.201 516.18 700.751 515.13 699.851 514.29C698.951 513.39 697.241 512.64 694.721 512.04L683.741 509.61C680.381 508.83 677.381 507.81 674.741 506.55C672.161 505.23 670.121 503.49 668.621 501.33C667.121 499.11 666.371 496.35 666.371 493.05C666.371 489.33 667.391 486.03 669.431 483.15C671.471 480.21 674.411 477.9 678.251 476.22C682.091 474.54 686.681 473.7 692.021 473.7ZM726.809 534V474.6H773.069V486.57H742.289V498.63H766.769V509.88H742.289V522.03H774.239V534H726.809ZM837.137 474.6V534H819.947L801.497 501.87L796.997 493.05H796.907L797.267 504.03V534H783.587V474.6H800.777L819.227 506.73L823.727 515.55H823.817L823.457 504.57V474.6H837.137ZM902.946 516.99C901.806 521.13 899.976 524.55 897.456 527.25C894.936 529.89 891.936 531.84 888.456 533.1C884.976 534.3 881.136 534.9 876.936 534.9C870.936 534.9 865.746 533.7 861.366 531.3C856.986 528.84 853.626 525.33 851.286 520.77C848.946 516.21 847.776 510.72 847.776 504.3C847.776 497.88 848.946 492.39 851.286 487.83C853.626 483.27 856.986 479.79 861.366 477.39C865.746 474.93 870.906 473.7 876.846 473.7C880.986 473.7 884.796 474.3 888.276 475.5C891.756 476.64 894.696 478.41 897.096 480.81C899.496 483.21 901.206 486.3 902.226 490.08L888.636 495.57C887.796 491.85 886.416 489.3 884.496 487.92C882.636 486.54 880.266 485.85 877.386 485.85C874.566 485.85 872.106 486.54 870.006 487.92C867.966 489.3 866.376 491.37 865.236 494.13C864.156 496.83 863.616 500.22 863.616 504.3C863.616 508.32 864.126 511.71 865.146 514.47C866.166 517.23 867.696 519.3 869.736 520.68C871.836 522.06 874.416 522.75 877.476 522.75C880.356 522.75 882.786 521.97 884.766 520.41C886.806 518.79 888.186 516.33 888.906 513.03L902.946 516.99ZM927.035 474.6V534H911.555V474.6H927.035ZM994.208 534H978.278L974.138 520.59H953.798L949.568 534H933.998L954.878 474.6H973.418L994.208 534ZM956.678 510.06H971.258L963.968 486.03L956.678 510.06Z" fill="black"/>
</g>
<defs>
<clipPath id="clip0_46_1145">
<rect width="1600" height="900" fill="white"/>
</clipPath>
</defs>
</svg>
