<svg width="1600" height="900" viewBox="0 0 1600 900" fill="none" xmlns="http://www.w3.org/2000/svg">
<g clip-path="url(#clip0_46_1149)">
<rect width="1600" height="900" fill="white"/>
<circle cx="800" cy="450" r="720" fill="black"/>
<circle cx="800" cy="450" r="440" fill="white"/>
<path d="M759.437 421.1H794.213V428H752.077V367.28H759.437V421.1ZM855.453 428H847.633L841.193 411.164H813.685L807.245 428H799.517L823.161 367.28H831.901L855.453 428ZM816.353 404.264H838.525L827.393 374.364L816.353 404.264ZM607.847 536V475.28H655.135V487.516H623.671V499.844H648.695V511.344H623.671V523.764H656.331V536H607.847ZM689.622 474.36C695.265 474.36 700.233 475.249 704.526 477.028C708.881 478.745 712.653 481.291 715.842 484.664L708.206 494.876C705.569 492.116 702.717 490.061 699.65 488.712C696.645 487.301 693.21 486.596 689.346 486.596C687.077 486.596 685.237 486.841 683.826 487.332C682.415 487.823 681.403 488.497 680.79 489.356C680.177 490.215 679.87 491.196 679.87 492.3C679.87 493.588 680.453 494.692 681.618 495.612C682.845 496.471 684.807 497.207 687.506 497.82L697.718 500.12C703.79 501.531 708.237 503.585 711.058 506.284C713.879 508.983 715.29 512.571 715.29 517.048C715.29 521.341 714.186 524.991 711.978 527.996C709.77 530.94 706.734 533.179 702.87 534.712C699.006 536.184 694.59 536.92 689.622 536.92C685.574 536.92 681.71 536.491 678.03 535.632C674.35 534.712 671.038 533.424 668.094 531.768C665.15 530.112 662.666 528.211 660.642 526.064L668.278 515.484C669.811 517.263 671.682 518.857 673.89 520.268C676.159 521.617 678.613 522.691 681.25 523.488C683.949 524.285 686.678 524.684 689.438 524.684C691.585 524.684 693.363 524.469 694.774 524.04C696.246 523.611 697.319 522.967 697.994 522.108C698.669 521.249 699.006 520.237 699.006 519.072C699.006 517.784 698.546 516.711 697.626 515.852C696.706 514.932 694.958 514.165 692.382 513.552L681.158 511.068C677.723 510.271 674.657 509.228 671.958 507.94C669.321 506.591 667.235 504.812 665.702 502.604C664.169 500.335 663.402 497.513 663.402 494.14C663.402 490.337 664.445 486.964 666.53 484.02C668.615 481.015 671.621 478.653 675.546 476.936C679.471 475.219 684.163 474.36 689.622 474.36ZM725.183 536V475.28H772.471V487.516H741.007V499.844H766.031V511.344H741.007V523.764H773.667V536H725.183ZM837.962 475.28V536H820.39L801.53 503.156L796.93 494.14H796.838L797.206 505.364V536H783.222V475.28H800.794L819.654 508.124L824.254 517.14H824.346L823.978 505.916V475.28H837.962ZM905.233 518.612C904.068 522.844 902.197 526.34 899.621 529.1C897.045 531.799 893.979 533.792 890.421 535.08C886.864 536.307 882.939 536.92 878.645 536.92C872.512 536.92 867.207 535.693 862.729 533.24C858.252 530.725 854.817 527.137 852.425 522.476C850.033 517.815 848.837 512.203 848.837 505.64C848.837 499.077 850.033 493.465 852.425 488.804C854.817 484.143 858.252 480.585 862.729 478.132C867.207 475.617 872.481 474.36 878.553 474.36C882.785 474.36 886.68 474.973 890.237 476.2C893.795 477.365 896.8 479.175 899.253 481.628C901.707 484.081 903.455 487.24 904.497 491.104L890.605 496.716C889.747 492.913 888.336 490.307 886.373 488.896C884.472 487.485 882.049 486.78 879.105 486.78C876.223 486.78 873.708 487.485 871.561 488.896C869.476 490.307 867.851 492.423 866.685 495.244C865.581 498.004 865.029 501.469 865.029 505.64C865.029 509.749 865.551 513.215 866.593 516.036C867.636 518.857 869.2 520.973 871.285 522.384C873.432 523.795 876.069 524.5 879.197 524.5C882.141 524.5 884.625 523.703 886.649 522.108C888.735 520.452 890.145 517.937 890.881 514.564L905.233 518.612ZM929.858 475.28V536H914.034V475.28H929.858ZM998.523 536H982.239L978.007 522.292H957.215L952.891 536H936.975L958.319 475.28H977.271L998.523 536ZM960.159 511.528H975.063L967.611 486.964L960.159 511.528Z" fill="black"/>
</g>
<defs>
<clipPath id="clip0_46_1149">
<rect width="1600" height="900" fill="white"/>
</clipPath>
</defs>
</svg>
