<svg width="1600" height="900" viewBox="0 0 1600 900" fill="none" xmlns="http://www.w3.org/2000/svg">
<g clip-path="url(#clip0_46_1153)">
<rect width="1600" height="900" fill="white"/>
<circle cx="800" cy="450" r="740" fill="black"/>
<circle cx="800" cy="450" r="460" fill="white"/>
<path d="M759.055 426.95H794.587V434H751.535V371.96H759.055V426.95ZM857.159 434H849.169L842.589 416.798H814.483L807.903 434H800.007L824.165 371.96H833.095L857.159 434ZM817.209 409.748H839.863L828.489 379.198L817.209 409.748ZM604.17 544V481.96H652.486V494.462H620.338V507.058H645.906V518.808H620.338V531.498H653.708V544H604.17ZM687.722 481.02C693.488 481.02 698.564 481.929 702.95 483.746C707.4 485.501 711.254 488.101 714.512 491.548L706.71 501.982C704.016 499.162 701.102 497.063 697.968 495.684C694.898 494.243 691.388 493.522 687.44 493.522C685.122 493.522 683.242 493.773 681.8 494.274C680.359 494.775 679.325 495.465 678.698 496.342C678.072 497.219 677.758 498.222 677.758 499.35C677.758 500.666 678.354 501.794 679.544 502.734C680.798 503.611 682.803 504.363 685.56 504.99L695.994 507.34C702.198 508.781 706.742 510.881 709.624 513.638C712.507 516.395 713.948 520.061 713.948 524.636C713.948 529.023 712.82 532.751 710.564 535.822C708.308 538.83 705.206 541.117 701.258 542.684C697.31 544.188 692.798 544.94 687.722 544.94C683.586 544.94 679.638 544.501 675.878 543.624C672.118 542.684 668.734 541.368 665.726 539.676C662.718 537.984 660.18 536.041 658.112 533.848L665.914 523.038C667.481 524.855 669.392 526.485 671.648 527.926C673.967 529.305 676.474 530.401 679.168 531.216C681.926 532.031 684.714 532.438 687.534 532.438C689.728 532.438 691.545 532.219 692.986 531.78C694.49 531.341 695.587 530.683 696.276 529.806C696.966 528.929 697.31 527.895 697.31 526.704C697.31 525.388 696.84 524.291 695.9 523.414C694.96 522.474 693.174 521.691 690.542 521.064L679.074 518.526C675.565 517.711 672.432 516.646 669.674 515.33C666.98 513.951 664.849 512.134 663.282 509.878C661.716 507.559 660.932 504.677 660.932 501.23C660.932 497.345 661.998 493.898 664.128 490.89C666.259 487.819 669.33 485.407 673.34 483.652C677.351 481.897 682.145 481.02 687.722 481.02ZM724.056 544V481.96H772.372V494.462H740.224V507.058H765.792V518.808H740.224V531.498H773.594V544H724.056ZM839.287 481.96V544H821.333L802.063 510.442L797.363 501.23H797.269L797.645 512.698V544H783.357V481.96H801.311L820.581 515.518L825.281 524.73H825.375L824.999 513.262V481.96H839.287ZM908.021 526.234C906.83 530.558 904.919 534.13 902.287 536.95C899.655 539.707 896.522 541.744 892.887 543.06C889.252 544.313 885.242 544.94 880.855 544.94C874.588 544.94 869.168 543.687 864.593 541.18C860.018 538.611 856.509 534.945 854.065 530.182C851.621 525.419 850.399 519.685 850.399 512.98C850.399 506.275 851.621 500.541 854.065 495.778C856.509 491.015 860.018 487.381 864.593 484.874C869.168 482.305 874.557 481.02 880.761 481.02C885.085 481.02 889.064 481.647 892.699 482.9C896.334 484.091 899.404 485.939 901.911 488.446C904.418 490.953 906.204 494.18 907.269 498.128L893.075 503.862C892.198 499.977 890.756 497.313 888.751 495.872C886.808 494.431 884.333 493.71 881.325 493.71C878.38 493.71 875.81 494.431 873.617 495.872C871.486 497.313 869.826 499.475 868.635 502.358C867.507 505.178 866.943 508.719 866.943 512.98C866.943 517.179 867.476 520.719 868.541 523.602C869.606 526.485 871.204 528.647 873.335 530.088C875.528 531.529 878.223 532.25 881.419 532.25C884.427 532.25 886.965 531.435 889.033 529.806C891.164 528.114 892.605 525.545 893.357 522.098L908.021 526.234ZM933.181 481.96V544H917.013V481.96H933.181ZM1003.34 544H986.701L982.377 529.994H961.133L956.715 544H940.453L962.261 481.96H981.625L1003.34 544ZM964.141 518.996H979.369L971.755 493.898L964.141 518.996Z" fill="black"/>
</g>
<defs>
<clipPath id="clip0_46_1153">
<rect width="1600" height="900" fill="white"/>
</clipPath>
</defs>
</svg>
