<svg width="1600" height="900" viewBox="0 0 1600 900" fill="none" xmlns="http://www.w3.org/2000/svg">
<g clip-path="url(#clip0_46_1157)">
<rect width="1600" height="900" fill="white"/>
<circle cx="800" cy="450" r="760" fill="black"/>
<circle cx="800" cy="450" r="480" fill="white"/>
<path d="M757.673 418.8H793.961V426H749.993V362.64H757.673V418.8ZM857.864 426H849.704L842.984 408.432H814.28L807.56 426H799.496L824.168 362.64H833.288L857.864 426ZM817.064 401.232H840.2L828.584 370.032L817.064 401.232ZM599.492 539V475.64H648.836V488.408H616.004V501.272H642.116V513.272H616.004V526.232H650.084V539H599.492ZM684.823 474.68C690.711 474.68 695.895 475.608 700.375 477.464C704.919 479.256 708.855 481.912 712.183 485.432L704.215 496.088C701.463 493.208 698.487 491.064 695.287 489.656C692.151 488.184 688.567 487.448 684.535 487.448C682.167 487.448 680.247 487.704 678.775 488.216C677.303 488.728 676.247 489.432 675.607 490.328C674.967 491.224 674.647 492.248 674.647 493.4C674.647 494.744 675.255 495.896 676.471 496.856C677.751 497.752 679.799 498.52 682.615 499.16L693.271 501.56C699.607 503.032 704.247 505.176 707.191 507.992C710.135 510.808 711.607 514.552 711.607 519.224C711.607 523.704 710.455 527.512 708.151 530.648C705.847 533.72 702.679 536.056 698.647 537.656C694.615 539.192 690.007 539.96 684.823 539.96C680.599 539.96 676.567 539.512 672.727 538.616C668.887 537.656 665.431 536.312 662.359 534.584C659.287 532.856 656.695 530.872 654.583 528.632L662.551 517.592C664.151 519.448 666.103 521.112 668.407 522.584C670.775 523.992 673.335 525.112 676.087 525.944C678.903 526.776 681.751 527.192 684.631 527.192C686.871 527.192 688.727 526.968 690.199 526.52C691.735 526.072 692.855 525.4 693.559 524.504C694.263 523.608 694.615 522.552 694.615 521.336C694.615 519.992 694.135 518.872 693.175 517.976C692.215 517.016 690.391 516.216 687.703 515.576L675.991 512.984C672.407 512.152 669.207 511.064 666.391 509.72C663.639 508.312 661.463 506.456 659.863 504.152C658.263 501.784 657.463 498.84 657.463 495.32C657.463 491.352 658.551 487.832 660.727 484.76C662.903 481.624 666.039 479.16 670.135 477.368C674.231 475.576 679.127 474.68 684.823 474.68ZM721.93 539V475.64H771.274V488.408H738.442V501.272H764.554V513.272H738.442V526.232H772.522V539H721.93ZM839.612 475.64V539H821.276L801.596 504.728L796.796 495.32H796.7L797.084 507.032V539H782.492V475.64H800.828L820.508 509.912L825.308 519.32H825.404L825.02 507.608V475.64H839.612ZM909.809 520.856C908.593 525.272 906.641 528.92 903.953 531.8C901.265 534.616 898.065 536.696 894.353 538.04C890.641 539.32 886.545 539.96 882.065 539.96C875.665 539.96 870.129 538.68 865.457 536.12C860.785 533.496 857.201 529.752 854.705 524.888C852.209 520.024 850.961 514.168 850.961 507.32C850.961 500.472 852.209 494.616 854.705 489.752C857.201 484.888 860.785 481.176 865.457 478.616C870.129 475.992 875.633 474.68 881.969 474.68C886.385 474.68 890.449 475.32 894.161 476.6C897.873 477.816 901.009 479.704 903.569 482.264C906.129 484.824 907.953 488.12 909.041 492.152L894.545 498.008C893.649 494.04 892.177 491.32 890.129 489.848C888.145 488.376 885.617 487.64 882.545 487.64C879.537 487.64 876.913 488.376 874.673 489.848C872.497 491.32 870.801 493.528 869.585 496.472C868.433 499.352 867.857 502.968 867.857 507.32C867.857 511.608 868.401 515.224 869.489 518.168C870.577 521.112 872.209 523.32 874.385 524.792C876.625 526.264 879.377 527 882.641 527C885.713 527 888.305 526.168 890.417 524.504C892.593 522.776 894.065 520.152 894.833 516.632L909.809 520.856ZM935.504 475.64V539H918.992V475.64H935.504ZM1007.15 539H990.163L985.747 524.696H964.051L959.539 539H942.931L965.203 475.64H984.979L1007.15 539ZM967.123 513.464H982.675L974.899 487.832L967.123 513.464Z" fill="black"/>
</g>
<defs>
<clipPath id="clip0_46_1157">
<rect width="1600" height="900" fill="white"/>
</clipPath>
</defs>
</svg>
