<svg width="1600" height="900" viewBox="0 0 1600 900" fill="none" xmlns="http://www.w3.org/2000/svg">
<g clip-path="url(#clip0_46_1161)">
<rect width="1600" height="900" fill="white"/>
<circle cx="800" cy="450" r="780" fill="black"/>
<circle cx="800" cy="450" r="500" fill="white"/>
<path d="M756.791 418.65H793.835V426H748.951V361.32H756.791V418.65ZM859.07 426H850.74L843.88 408.066H814.578L807.718 426H799.486L824.672 361.32H833.982L859.07 426ZM817.42 400.716H841.038L829.18 368.866L817.42 400.716ZM595.315 541V476.32H645.687V489.354H612.171V502.486H638.827V514.736H612.171V527.966H646.961V541H595.315ZM682.423 475.34C688.434 475.34 693.726 476.287 698.299 478.182C702.938 480.011 706.956 482.723 710.353 486.316L702.219 497.194C699.41 494.254 696.372 492.065 693.105 490.628C689.904 489.125 686.245 488.374 682.129 488.374C679.712 488.374 677.752 488.635 676.249 489.158C674.747 489.681 673.669 490.399 673.015 491.314C672.362 492.229 672.035 493.274 672.035 494.45C672.035 495.822 672.656 496.998 673.897 497.978C675.204 498.893 677.295 499.677 680.169 500.33L691.047 502.78C697.515 504.283 702.252 506.471 705.257 509.346C708.263 512.221 709.765 516.043 709.765 520.812C709.765 525.385 708.589 529.273 706.237 532.474C703.885 535.61 700.651 537.995 696.535 539.628C692.419 541.196 687.715 541.98 682.423 541.98C678.111 541.98 673.995 541.523 670.075 540.608C666.155 539.628 662.627 538.256 659.491 536.492C656.355 534.728 653.709 532.703 651.553 530.416L659.687 519.146C661.321 521.041 663.313 522.739 665.665 524.242C668.083 525.679 670.696 526.823 673.505 527.672C676.38 528.521 679.287 528.946 682.227 528.946C684.514 528.946 686.409 528.717 687.911 528.26C689.479 527.803 690.623 527.117 691.341 526.202C692.06 525.287 692.419 524.209 692.419 522.968C692.419 521.596 691.929 520.453 690.949 519.538C689.969 518.558 688.107 517.741 685.363 517.088L673.407 514.442C669.749 513.593 666.482 512.482 663.607 511.11C660.798 509.673 658.577 507.778 656.943 505.426C655.31 503.009 654.493 500.003 654.493 496.41C654.493 492.359 655.604 488.766 657.825 485.63C660.047 482.429 663.248 479.913 667.429 478.084C671.611 476.255 676.609 475.34 682.423 475.34ZM720.303 541V476.32H770.675V489.354H737.159V502.486H763.815V514.736H737.159V527.966H771.949V541H720.303ZM840.438 476.32V541H821.72L801.63 506.014L796.73 496.41H796.632L797.024 508.366V541H782.128V476.32H800.846L820.936 511.306L825.836 520.91H825.934L825.542 508.954V476.32H840.438ZM912.096 522.478C910.855 526.986 908.862 530.71 906.118 533.65C903.374 536.525 900.108 538.648 896.318 540.02C892.529 541.327 888.348 541.98 883.774 541.98C877.241 541.98 871.59 540.673 866.82 538.06C862.051 535.381 858.392 531.559 855.844 526.594C853.296 521.629 852.022 515.651 852.022 508.66C852.022 501.669 853.296 495.691 855.844 490.726C858.392 485.761 862.051 481.971 866.82 479.358C871.59 476.679 877.208 475.34 883.676 475.34C888.184 475.34 892.333 475.993 896.122 477.3C899.912 478.541 903.113 480.469 905.726 483.082C908.34 485.695 910.202 489.06 911.312 493.176L896.514 499.154C895.6 495.103 894.097 492.327 892.006 490.824C889.981 489.321 887.4 488.57 884.264 488.57C881.194 488.57 878.515 489.321 876.228 490.824C874.007 492.327 872.276 494.581 871.034 497.586C869.858 500.526 869.27 504.217 869.27 508.66C869.27 513.037 869.826 516.729 870.936 519.734C872.047 522.739 873.713 524.993 875.934 526.496C878.221 527.999 881.03 528.75 884.362 528.75C887.498 528.75 890.144 527.901 892.3 526.202C894.522 524.438 896.024 521.759 896.808 518.166L912.096 522.478ZM938.327 476.32V541H921.471V476.32H938.327ZM1011.47 541H994.125L989.617 526.398H967.469L962.863 541H945.909L968.645 476.32H988.833L1011.47 541ZM970.605 514.932H986.481L978.543 488.766L970.605 514.932Z" fill="black"/>
</g>
<defs>
<clipPath id="clip0_46_1161">
<rect width="1600" height="900" fill="white"/>
</clipPath>
</defs>
</svg>
