<svg width="1600" height="900" viewBox="0 0 1600 900" fill="none" xmlns="http://www.w3.org/2000/svg">
<g clip-path="url(#clip0_46_1165)">
<rect width="1600" height="900" fill="white"/>
<circle cx="800" cy="450" r="800" fill="black"/>
<circle cx="800" cy="450" r="520" fill="white"/>
<path d="M756.409 418.5H794.209V426H748.409V360H756.409V418.5ZM860.775 426H852.275L845.275 407.7H815.375L808.375 426H799.975L825.675 360H835.175L860.775 426ZM818.275 400.2H842.375L830.275 367.7L818.275 400.2ZM591.638 543V477H643.038V490.3H608.838V503.7H636.038V516.2H608.838V529.7H644.338V543H591.638ZM680.524 476C686.657 476 692.057 476.967 696.724 478.9C701.457 480.767 705.557 483.533 709.024 487.2L700.724 498.3C697.857 495.3 694.757 493.067 691.424 491.6C688.157 490.067 684.424 489.3 680.224 489.3C677.757 489.3 675.757 489.567 674.224 490.1C672.69 490.633 671.59 491.367 670.924 492.3C670.257 493.233 669.924 494.3 669.924 495.5C669.924 496.9 670.557 498.1 671.824 499.1C673.157 500.033 675.29 500.833 678.224 501.5L689.324 504C695.924 505.533 700.757 507.767 703.824 510.7C706.89 513.633 708.424 517.533 708.424 522.4C708.424 527.067 707.224 531.033 704.824 534.3C702.424 537.5 699.124 539.933 694.924 541.6C690.724 543.2 685.924 544 680.524 544C676.124 544 671.924 543.533 667.924 542.6C663.924 541.6 660.324 540.2 657.124 538.4C653.924 536.6 651.224 534.533 649.024 532.2L657.324 520.7C658.99 522.633 661.024 524.367 663.424 525.9C665.89 527.367 668.557 528.533 671.424 529.4C674.357 530.267 677.324 530.7 680.324 530.7C682.657 530.7 684.59 530.467 686.124 530C687.724 529.533 688.89 528.833 689.624 527.9C690.357 526.967 690.724 525.867 690.724 524.6C690.724 523.2 690.224 522.033 689.224 521.1C688.224 520.1 686.324 519.267 683.524 518.6L671.324 515.9C667.59 515.033 664.257 513.9 661.324 512.5C658.457 511.033 656.19 509.1 654.524 506.7C652.857 504.233 652.024 501.167 652.024 497.5C652.024 493.367 653.157 489.7 655.424 486.5C657.69 483.233 660.957 480.667 665.224 478.8C669.49 476.933 674.59 476 680.524 476ZM719.177 543V477H770.577V490.3H736.377V503.7H763.577V516.2H736.377V529.7H771.877V543H719.177ZM841.763 477V543H822.663L802.163 507.3L797.163 497.5H797.063L797.463 509.7V543H782.263V477H801.363L821.863 512.7L826.863 522.5H826.963L826.563 510.3V477H841.763ZM914.884 524.1C913.617 528.7 911.584 532.5 908.784 535.5C905.984 538.433 902.651 540.6 898.784 542C894.917 543.333 890.651 544 885.984 544C879.317 544 873.551 542.667 868.684 540C863.817 537.267 860.084 533.367 857.484 528.3C854.884 523.233 853.584 517.133 853.584 510C853.584 502.867 854.884 496.767 857.484 491.7C860.084 486.633 863.817 482.767 868.684 480.1C873.551 477.367 879.284 476 885.884 476C890.484 476 894.717 476.667 898.584 478C902.451 479.267 905.717 481.233 908.384 483.9C911.051 486.567 912.951 490 914.084 494.2L898.984 500.3C898.051 496.167 896.517 493.333 894.384 491.8C892.317 490.267 889.684 489.5 886.484 489.5C883.351 489.5 880.617 490.267 878.284 491.8C876.017 493.333 874.251 495.633 872.984 498.7C871.784 501.7 871.184 505.467 871.184 510C871.184 514.467 871.751 518.233 872.884 521.3C874.017 524.367 875.717 526.667 877.984 528.2C880.317 529.733 883.184 530.5 886.584 530.5C889.784 530.5 892.484 529.633 894.684 527.9C896.951 526.1 898.484 523.367 899.284 519.7L914.884 524.1ZM941.65 477V543H924.45V477H941.65ZM1016.29 543H998.586L993.986 528.1H971.386L966.686 543H949.386L972.586 477H993.186L1016.29 543ZM974.586 516.4H990.786L982.686 489.7L974.586 516.4Z" fill="black"/>
</g>
<defs>
<clipPath id="clip0_46_1165">
<rect width="1600" height="900" fill="white"/>
</clipPath>
</defs>
</svg>
