<svg width="1600" height="900" viewBox="0 0 1600 900" fill="none" xmlns="http://www.w3.org/2000/svg">
<g clip-path="url(#clip0_46_1169)">
<rect width="1600" height="900" fill="white"/>
<circle cx="800" cy="450" r="820" fill="black"/>
<circle cx="800" cy="450" r="540" fill="white"/>
<path d="M755.528 417.35H794.084V425H747.368V357.68H755.528V417.35ZM861.981 425H853.311L846.171 406.334H815.673L808.533 425H799.965L826.179 357.68H835.869L861.981 425ZM818.631 398.684H843.213L830.871 365.534L818.631 398.684ZM587.461 545V477.68H639.889V491.246H605.005V504.914H632.749V517.664H605.005V531.434H641.215V545H587.461ZM678.124 476.66C684.38 476.66 689.888 477.646 694.648 479.618C699.476 481.522 703.658 484.344 707.194 488.084L698.728 499.406C695.804 496.346 692.642 494.068 689.242 492.572C685.91 491.008 682.102 490.226 677.818 490.226C675.302 490.226 673.262 490.498 671.698 491.042C670.134 491.586 669.012 492.334 668.332 493.286C667.652 494.238 667.312 495.326 667.312 496.55C667.312 497.978 667.958 499.202 669.25 500.222C670.61 501.174 672.786 501.99 675.778 502.67L687.1 505.22C693.832 506.784 698.762 509.062 701.89 512.054C705.018 515.046 706.582 519.024 706.582 523.988C706.582 528.748 705.358 532.794 702.91 536.126C700.462 539.39 697.096 541.872 692.812 543.572C688.528 545.204 683.632 546.02 678.124 546.02C673.636 546.02 669.352 545.544 665.272 544.592C661.192 543.572 657.52 542.144 654.256 540.308C650.992 538.472 648.238 536.364 645.994 533.984L654.46 522.254C656.16 524.226 658.234 525.994 660.682 527.558C663.198 529.054 665.918 530.244 668.842 531.128C671.834 532.012 674.86 532.454 677.92 532.454C680.3 532.454 682.272 532.216 683.836 531.74C685.468 531.264 686.658 530.55 687.406 529.598C688.154 528.646 688.528 527.524 688.528 526.232C688.528 524.804 688.018 523.614 686.998 522.662C685.978 521.642 684.04 520.792 681.184 520.112L668.74 517.358C664.932 516.474 661.532 515.318 658.54 513.89C655.616 512.394 653.304 510.422 651.604 507.974C649.904 505.458 649.054 502.33 649.054 498.59C649.054 494.374 650.21 490.634 652.522 487.37C654.834 484.038 658.166 481.42 662.518 479.516C666.87 477.612 672.072 476.66 678.124 476.66ZM717.55 545V477.68H769.978V491.246H735.094V504.914H762.838V517.664H735.094V531.434H771.304V545H717.55ZM842.588 477.68V545H823.106L802.196 508.586L797.096 498.59H796.994L797.402 511.034V545H781.898V477.68H801.38L822.29 514.094L827.39 524.09H827.492L827.084 511.646V477.68H842.588ZM917.172 525.722C915.88 530.414 913.806 534.29 910.95 537.35C908.094 540.342 904.694 542.552 900.75 543.98C896.806 545.34 892.454 546.02 887.694 546.02C880.894 546.02 875.012 544.66 870.048 541.94C865.084 539.152 861.276 535.174 858.624 530.006C855.972 524.838 854.646 518.616 854.646 511.34C854.646 504.064 855.972 497.842 858.624 492.674C861.276 487.506 865.084 483.562 870.048 480.842C875.012 478.054 880.86 476.66 887.592 476.66C892.284 476.66 896.602 477.34 900.546 478.7C904.49 479.992 907.822 481.998 910.542 484.718C913.262 487.438 915.2 490.94 916.356 495.224L900.954 501.446C900.002 497.23 898.438 494.34 896.262 492.776C894.154 491.212 891.468 490.43 888.204 490.43C885.008 490.43 882.22 491.212 879.84 492.776C877.528 494.34 875.726 496.686 874.434 499.814C873.21 502.874 872.598 506.716 872.598 511.34C872.598 515.896 873.176 519.738 874.332 522.866C875.488 525.994 877.222 528.34 879.534 529.904C881.914 531.468 884.838 532.25 888.306 532.25C891.57 532.25 894.324 531.366 896.568 529.598C898.88 527.762 900.444 524.974 901.26 521.234L917.172 525.722ZM944.473 477.68V545H926.929V477.68H944.473ZM1020.6 545H1002.55L997.856 529.802H974.804L970.01 545H952.364L976.028 477.68H997.04L1020.6 545ZM978.068 517.868H994.592L986.33 490.634L978.068 517.868Z" fill="black"/>
</g>
<defs>
<clipPath id="clip0_46_1169">
<rect width="1600" height="900" fill="white"/>
</clipPath>
</defs>
</svg>
