<svg width="1600" height="900" viewBox="0 0 1600 900" fill="none" xmlns="http://www.w3.org/2000/svg">
<g clip-path="url(#clip0_46_1185)">
<rect width="1600" height="900" fill="white"/>
<circle cx="800" cy="450" r="910" fill="black"/>
<circle cx="800" cy="450" r="620" fill="white"/>
<path d="M754.146 417.2H793.458V425H745.826V356.36H754.146V417.2ZM862.686 425H853.846L846.566 405.968H815.47L808.19 425H799.454L826.182 356.36H836.062L862.686 425ZM818.486 398.168H843.55L830.966 364.368L818.486 398.168ZM582.783 547V478.36H636.239V492.192H600.671V506.128H628.959V519.128H600.671V533.168H637.591V547H582.783ZM675.225 477.32C681.603 477.32 687.219 478.325 692.073 480.336C696.995 482.277 701.259 485.155 704.865 488.968L696.233 500.512C693.251 497.392 690.027 495.069 686.561 493.544C683.163 491.949 679.281 491.152 674.913 491.152C672.347 491.152 670.267 491.429 668.673 491.984C667.078 492.539 665.934 493.301 665.241 494.272C664.547 495.243 664.201 496.352 664.201 497.6C664.201 499.056 664.859 500.304 666.177 501.344C667.563 502.315 669.782 503.147 672.833 503.84L684.377 506.44C691.241 508.035 696.267 510.357 699.457 513.408C702.646 516.459 704.241 520.515 704.241 525.576C704.241 530.429 702.993 534.555 700.497 537.952C698.001 541.28 694.569 543.811 690.201 545.544C685.833 547.208 680.841 548.04 675.225 548.04C670.649 548.04 666.281 547.555 662.121 546.584C657.961 545.544 654.217 544.088 650.889 542.216C647.561 540.344 644.753 538.195 642.465 535.768L651.097 523.808C652.83 525.819 654.945 527.621 657.441 529.216C660.006 530.741 662.779 531.955 665.761 532.856C668.811 533.757 671.897 534.208 675.017 534.208C677.443 534.208 679.454 533.965 681.049 533.48C682.713 532.995 683.926 532.267 684.689 531.296C685.451 530.325 685.833 529.181 685.833 527.864C685.833 526.408 685.313 525.195 684.273 524.224C683.233 523.184 681.257 522.317 678.345 521.624L665.657 518.816C661.774 517.915 658.307 516.736 655.257 515.28C652.275 513.755 649.918 511.744 648.185 509.248C646.451 506.683 645.585 503.493 645.585 499.68C645.585 495.381 646.763 491.568 649.121 488.24C651.478 484.843 654.875 482.173 659.313 480.232C663.75 478.291 669.054 477.32 675.225 477.32ZM715.424 547V478.36H768.88V492.192H733.312V506.128H761.6V519.128H733.312V533.168H770.232V547H715.424ZM842.913 478.36V547H823.049L801.729 509.872L796.529 499.68H796.425L796.841 512.368V547H781.033V478.36H800.897L822.217 515.488L827.417 525.68H827.521L827.105 512.992V478.36H842.913ZM918.959 527.344C917.642 532.128 915.527 536.08 912.615 539.2C909.703 542.251 906.237 544.504 902.215 545.96C898.194 547.347 893.757 548.04 888.903 548.04C881.97 548.04 875.973 546.653 870.911 543.88C865.85 541.037 861.967 536.981 859.263 531.712C856.559 526.443 855.207 520.099 855.207 512.68C855.207 505.261 856.559 498.917 859.263 493.648C861.967 488.379 865.85 484.357 870.911 481.584C875.973 478.741 881.935 477.32 888.799 477.32C893.583 477.32 897.986 478.013 902.007 479.4C906.029 480.717 909.426 482.763 912.199 485.536C914.973 488.309 916.949 491.88 918.127 496.248L902.423 502.592C901.453 498.293 899.858 495.347 897.639 493.752C895.49 492.157 892.751 491.36 889.423 491.36C886.165 491.36 883.322 492.157 880.895 493.752C878.538 495.347 876.701 497.739 875.383 500.928C874.135 504.048 873.511 507.965 873.511 512.68C873.511 517.325 874.101 521.243 875.279 524.432C876.458 527.621 878.226 530.013 880.583 531.608C883.01 533.203 885.991 534 889.527 534C892.855 534 895.663 533.099 897.951 531.296C900.309 529.424 901.903 526.581 902.735 522.768L918.959 527.344ZM946.796 478.36V547H928.908V478.36H946.796ZM1024.42 547H1006.01L1001.23 531.504H977.722L972.834 547H954.842L978.97 478.36H1000.39L1024.42 547ZM981.05 519.336H997.898L989.474 491.568L981.05 519.336Z" fill="black"/>
</g>
<defs>
<clipPath id="clip0_46_1185">
<rect width="1600" height="900" fill="white"/>
</clipPath>
</defs>
</svg>
