<svg width="1600" height="900" viewBox="0 0 1600 900" fill="none" xmlns="http://www.w3.org/2000/svg">
<rect width="1600" height="900" fill="white"/>
<path d="M0 0V281.951C109.532 233.413 334.328 214.14 433.035 210.571C749.851 210.571 798.964 371.183 800.556 369.993C891.302 193.923 1174.93 210.571 1181.29 210.571C1351.96 210.571 1531.54 258.158 1600 281.951V0H0Z" fill="black"/>
<line x1="800.5" y1="369" x2="800.5" y2="377" stroke="black"/>
<path d="M830 422.143C830 438.57 816.637 462 800.857 462C785.078 462 770 438.57 770 422.143C770 405.715 800.857 369.197 800.857 372.171C800.857 369.196 830 405.715 830 422.143Z" fill="black"/>
</svg>
